<svg class="main-svg" xmlns="http://www.w3.org/2000/svg" xmlns:xlink="http://www.w3.org/1999/xlink" width="1200" height="700" style="" viewBox="0 0 1200 700"><rect x="0" y="0" width="1200" height="700" style="fill: rgb(255, 255, 255); fill-opacity: 1;"/><defs id="defs-d85e96"><g class="clips"><clipPath id="clipd85e96xyplot" class="plotclip"><rect width="887" height="520"/></clipPath><clipPath class="axesclip" id="clipd85e96x"><rect x="80" y="0" width="887" height="700"/></clipPath><clipPath class="axesclip" id="clipd85e96y"><rect x="0" y="100" width="1200" height="520"/></clipPath><clipPath class="axesclip" id="clipd85e96xy"><rect x="80" y="100" width="887" height="520"/></clipPath></g><g class="gradients"/><g class="patterns"/></defs><g class="bglayer"/><g class="layer-below"><g class="imagelayer"/><g class="shapelayer"/></g><g class="cartesianlayer"><g class="subplot xy"><g class="layer-subplot"><g class="shapelayer"/><g class="imagelayer"/></g><g class="minor-gridlayer"><g class="x"/><g class="y"/></g><g class="gridlayer"><g class="x"><path class="xgrid crisp" transform="translate(257.4,0)" d="M0,100v520" style="stroke: rgb(238, 238, 238); stroke-opacity: 1; stroke-width: 1px;"/><path class="xgrid crisp" transform="translate(434.8,0)" d="M0,100v520" style="stroke: rgb(238, 238, 238); stroke-opacity: 1; stroke-width: 1px;"/><path class="xgrid crisp" transform="translate(612.2,0)" d="M0,100v520" style="stroke: rgb(238, 238, 238); stroke-opacity: 1; stroke-width: 1px;"/><path class="xgrid crisp" transform="translate(789.6,0)" d="M0,100v520" style="stroke: rgb(238, 238, 238); stroke-opacity: 1; stroke-width: 1px;"/></g><g class="y"><path class="ygrid crisp" transform="translate(0,508.82)" d="M80,0h887" style="stroke: rgb(238, 238, 238); stroke-opacity: 1; stroke-width: 1px;"/><path class="ygrid crisp" transform="translate(0,413.12)" d="M80,0h887" style="stroke: rgb(238, 238, 238); stroke-opacity: 1; stroke-width: 1px;"/><path class="ygrid crisp" transform="translate(0,317.40999999999997)" d="M80,0h887" style="stroke: rgb(238, 238, 238); stroke-opacity: 1; stroke-width: 1px;"/><path class="ygrid crisp" transform="translate(0,221.70999999999998)" d="M80,0h887" style="stroke: rgb(238, 238, 238); stroke-opacity: 1; stroke-width: 1px;"/><path class="ygrid crisp" transform="translate(0,126)" d="M80,0h887" style="stroke: rgb(238, 238, 238); stroke-opacity: 1; stroke-width: 1px;"/></g></g><g class="zerolinelayer"><path class="yzl zl crisp" transform="translate(0,604.53)" d="M80,0h887" style="stroke: rgb(68, 68, 68); stroke-opacity: 1; stroke-width: 1px;"/></g><path class="xlines-below"/><path class="ylines-below"/><g class="overlines-below"/><g class="xaxislayer-below"/><g class="yaxislayer-below"/><g class="overaxes-below"/><g class="plot" transform="translate(80,100)" clip-path="url(#clipd85e96xyplot)"><g class="scatterlayer mlayer"><g class="trace scatter tracef66335" style="stroke-miterlimit: 2; opacity: 1;"><g class="fills"><g><path class="js-fill" d="M0,425.09L3.55,26L7.1,325.56L10.64,414.56L14.19,26L17.74,429.88L21.29,420.31L24.84,26L28.38,26L31.93,26L35.48,119.79L39.03,386.81L42.58,165.73L46.12,387.84L49.67,26L53.22,215.5L56.77,253.78L60.32,26L63.86,357.24L67.41,26L70.96,26L78.06,185.83L81.6,178.17L85.15,26L88.7,26L92.25,63.33L95.8,26L102.89,26L106.44,261.34L109.99,137.98L113.54,251.41L117.08,26L120.63,26L124.18,26L127.73,218.81L131.28,26L134.82,26L141.92,26L145.47,176.89L149.02,173.21L152.56,67.15L156.11,26L159.66,26L166.76,26L170.3,149.33L173.85,26L177.4,26L184.5,26L188.04,126.55L191.59,26L195.14,26L230.62,26L234.17,84.05L237.72,26L241.26,26L248.36,26L251.91,77.89L255.46,26L259,76.4L262.55,26L266.1,26L290.94,26L294.48,60.8L298.03,26L301.58,26L315.77,26L319.32,60.24L322.87,26L326.42,26L347.7,26L351.25,51.36L354.8,26L358.35,53.31L361.9,26L365.44,26L368.99,53.83L372.54,26L400.92,26L404.47,60.19L408.02,26L411.57,26L429.31,26L432.86,54.92L436.4,26L439.95,26L450.6,26L454.14,50.98L457.69,26L461.24,48.97L464.79,26L468.34,26L478.98,26L482.53,53.89L486.08,26L489.62,26L496.72,26L500.27,52.26L507.36,26L510.91,26L518.01,26L521.56,54.71L525.1,26L528.65,26L581.87,26L585.42,43.8L588.97,26L592.52,26L596.06,26L599.61,45.47L603.16,45.14L606.71,26L635.09,26L638.64,44.32L642.19,26L645.74,26L677.67,26L681.22,39.59L684.76,26L688.31,43.38L691.86,26L695.41,26L762.82,26L766.37,40.45L769.92,26L773.46,26L862.16,26L865.71,33.39L869.26,26L872.81,33.83L876.36,26L879.9,26L883.45,35.55L887,39.17L887,394.47L883.45,406.91L879.9,403.08L876.36,413.61L872.81,390.94L869.26,391.63L865.71,400.21L862.16,392.74L858.62,393.03L855.07,404.99L851.52,393.28L847.97,393.55L844.42,393.99L840.88,406.91L837.33,397.34L833.78,433.71L830.23,394.37L826.68,397.22L823.14,396.86L819.59,413.61L816.04,411.69L812.49,403.08L808.94,410.74L805.4,398.72L801.85,422.22L798.3,399.25L794.75,401.17L791.2,396.92L787.66,396.67L784.11,432.75L780.56,436.58L777.01,393.89L773.46,395.31L769.92,410.74L766.37,404.04L762.82,395.21L755.72,395.98L752.18,419.35L748.63,396.38L745.08,400.21L741.53,393.93L737.98,414.56L734.44,398.29L730.89,409.78L727.34,399.25L723.79,400.21L720.24,467.2L716.7,412.65L713.15,408.82L709.6,420.31L706.05,455.72L702.5,398.29L698.96,414.56L695.41,422.22L691.86,457.63L688.31,417.44L684.76,416.48L681.22,433.71L677.67,393.57L674.12,420.31L670.57,411.69L667.02,416.48L663.48,431.79L659.93,430.83L656.38,397.34L652.83,481.56L649.28,396.97L645.74,433.71L642.19,402.12L638.64,404.04L635.09,419.35L631.54,438.49L628,433.71L624.45,455.72L620.9,400.21L617.35,454.76L613.8,398.41L610.26,404.99L606.71,449.02L603.16,402.29L599.61,414.56L596.06,447.1L592.52,416.48L588.97,457.63L585.42,435.62L581.87,433.71L578.32,457.63L574.78,405.01L571.23,406.77L567.68,443.28L564.13,412.65L560.58,447.1L557.04,457.63L553.49,439.45L549.94,433.71L546.39,407.42L542.84,417.44L539.3,445.19L535.75,437.53L532.2,421.26L528.65,418.39L525.1,428.92L521.56,410.89L518.01,412.04L514.46,425.09L510.91,448.06L507.36,417.44L503.82,456.67L500.27,460.5L496.72,434.66L493.17,454.76L489.62,459.55L486.08,416.63L482.53,417.57L478.98,439.45L475.43,419.08L471.88,457.63L468.34,463.37L464.79,449.98L461.24,463.37L457.69,455.72L454.14,452.85L450.6,429.82L447.05,447.1L443.5,445.19L439.95,430.51L436.4,432.73L432.86,461.46L429.31,454.76L425.76,440.35L422.21,449.98L418.66,440.81L415.12,456.67L411.57,458.59L408.02,439.91L404.47,450.93L400.92,441.78L397.38,452.85L393.83,445.19L390.28,472.94L386.73,442.41L383.18,455.72L379.64,442.22L376.09,444.23L372.54,447.1L368.99,442.89L365.44,452.85L361.9,453.8L358.35,443.54L354.8,445.55L351.25,445.86L347.7,455.72L344.16,455.72L340.61,453.8L337.06,452.85L333.51,454.76L326.42,446.38L322.87,456.67L319.32,451.89L315.77,459.55L312.22,449.98L308.68,459.55L305.13,449.19L301.58,449.98L294.48,450.17L290.94,471.03L287.39,453.8L283.84,454.76L280.29,459.55L276.74,457.63L273.2,454.76L269.65,452.85L266.1,451.41L262.55,451.85L255.46,452.44L251.91,461.46L248.36,452.85L244.81,460.5L241.26,454.76L237.72,464.33L234.17,454.76L230.62,460.5L227.07,454.01L223.52,455.72L219.98,461.46L216.43,456.67L209.33,454.74L205.78,455.56L202.24,456.04L198.69,461.46L195.14,456.12L191.59,456.85L188.04,461.46L184.5,459.55L177.4,457.19L173.85,458.59L170.3,461.46L166.76,458.8L163.21,459.55L159.66,467.2L156.11,458.86L152.56,458.84L145.47,459.43L141.92,463.37L138.37,493.04L134.82,463.37L131.28,466.25L127.73,460.71L124.18,462.42L120.63,461.12L117.08,462.15L113.54,464.33L109.99,463.24L106.44,463.76L99.34,464.45L95.8,464.62L92.25,464.52L88.7,465.29L81.6,465.02L78.06,465.63L67.41,466.57L63.86,467.16L56.77,468.6L53.22,492.09L49.67,470.21L46.12,471.03L42.58,494L39.03,471.76L35.48,472.37L31.93,489.21L28.38,473.88L24.84,475.03L14.19,479.3L10.64,494L7.1,481.88L3.55,482.19L0,490.17Z" style="fill: rgb(0, 100, 80); fill-opacity: 0.2; stroke-width: 0;"/></g></g><g class="errorbars"/><g class="lines"><path class="js-line" d="M0,425.09L3.55,26L7.1,325.56L10.64,414.56L14.19,26L17.74,429.88L21.29,420.31L24.84,26L28.38,26L31.93,26L35.48,119.79L39.03,386.81L42.58,165.73L46.12,387.84L49.67,26L53.22,215.5L56.77,253.78L60.32,26L63.86,357.24L67.41,26L70.96,26L78.06,185.83L81.6,178.17L85.15,26L88.7,26L92.25,63.33L95.8,26L102.89,26L106.44,261.34L109.99,137.98L113.54,251.41L117.08,26L120.63,26L124.18,26L127.73,218.81L131.28,26L134.82,26L141.92,26L145.47,176.89L149.02,173.21L152.56,67.15L156.11,26L159.66,26L166.76,26L170.3,149.33L173.85,26L177.4,26L184.5,26L188.04,126.55L191.59,26L195.14,26L230.62,26L234.17,84.05L237.72,26L241.26,26L248.36,26L251.91,77.89L255.46,26L259,76.4L262.55,26L266.1,26L290.94,26L294.48,60.8L298.03,26L301.58,26L315.77,26L319.32,60.24L322.87,26L326.42,26L347.7,26L351.25,51.36L354.8,26L358.35,53.31L361.9,26L365.44,26L368.99,53.83L372.54,26L400.92,26L404.47,60.19L408.02,26L411.57,26L429.31,26L432.86,54.92L436.4,26L439.95,26L450.6,26L454.14,50.98L457.69,26L461.24,48.97L464.79,26L468.34,26L478.98,26L482.53,53.89L486.08,26L489.62,26L496.72,26L500.27,52.26L507.36,26L510.91,26L518.01,26L521.56,54.71L525.1,26L528.65,26L581.87,26L585.42,43.8L588.97,26L592.52,26L596.06,26L599.61,45.47L603.16,45.14L606.71,26L635.09,26L638.64,44.32L642.19,26L645.74,26L677.67,26L681.22,39.59L684.76,26L688.31,43.38L691.86,26L695.41,26L762.82,26L766.37,40.45L769.92,26L773.46,26L862.16,26L865.71,33.39L869.26,26L872.81,33.83L876.36,26L879.9,26L883.45,35.55L887,39.17L887,394.47L883.45,406.91L879.9,403.08L876.36,413.61L872.81,390.94L869.26,391.63L865.71,400.21L862.16,392.74L858.62,393.03L855.07,404.99L851.52,393.28L847.97,393.55L844.42,393.99L840.88,406.91L837.33,397.34L833.78,433.71L830.23,394.37L826.68,397.22L823.14,396.86L819.59,413.61L816.04,411.69L812.49,403.08L808.94,410.74L805.4,398.72L801.85,422.22L798.3,399.25L794.75,401.17L791.2,396.92L787.66,396.67L784.11,432.75L780.56,436.58L777.01,393.89L773.46,395.31L769.92,410.74L766.37,404.04L762.82,395.21L755.72,395.98L752.18,419.35L748.63,396.38L745.08,400.21L741.53,393.93L737.98,414.56L734.44,398.29L730.89,409.78L727.34,399.25L723.79,400.21L720.24,467.2L716.7,412.65L713.15,408.82L709.6,420.31L706.05,455.72L702.5,398.29L698.96,414.56L695.41,422.22L691.86,457.63L688.31,417.44L684.76,416.48L681.22,433.71L677.67,393.57L674.12,420.31L670.57,411.69L667.02,416.48L663.48,431.79L659.93,430.83L656.38,397.34L652.83,481.56L649.28,396.97L645.74,433.71L642.19,402.12L638.64,404.04L635.09,419.35L631.54,438.49L628,433.71L624.45,455.72L620.9,400.21L617.35,454.76L613.8,398.41L610.26,404.99L606.71,449.02L603.16,402.29L599.61,414.56L596.06,447.1L592.52,416.48L588.97,457.63L585.42,435.62L581.87,433.71L578.32,457.63L574.78,405.01L571.23,406.77L567.68,443.28L564.13,412.65L560.58,447.1L557.04,457.63L553.49,439.45L549.94,433.71L546.39,407.42L542.84,417.44L539.3,445.19L535.75,437.53L532.2,421.26L528.65,418.39L525.1,428.92L521.56,410.89L518.01,412.04L514.46,425.09L510.91,448.06L507.36,417.44L503.82,456.67L500.27,460.5L496.72,434.66L493.17,454.76L489.62,459.55L486.08,416.63L482.53,417.57L478.98,439.45L475.43,419.08L471.88,457.63L468.34,463.37L464.79,449.98L461.24,463.37L457.69,455.72L454.14,452.85L450.6,429.82L447.05,447.1L443.5,445.19L439.95,430.51L436.4,432.73L432.86,461.46L429.31,454.76L425.76,440.35L422.21,449.98L418.66,440.81L415.12,456.67L411.57,458.59L408.02,439.91L404.47,450.93L400.92,441.78L397.38,452.85L393.83,445.19L390.28,472.94L386.73,442.41L383.18,455.72L379.64,442.22L376.09,444.23L372.54,447.1L368.99,442.89L365.44,452.85L361.9,453.8L358.35,443.54L354.8,445.55L351.25,445.86L347.7,455.72L344.16,455.72L340.61,453.8L337.06,452.85L333.51,454.76L326.42,446.38L322.87,456.67L319.32,451.89L315.77,459.55L312.22,449.98L308.68,459.55L305.13,449.19L301.58,449.98L294.48,450.17L290.94,471.03L287.39,453.8L283.84,454.76L280.29,459.55L276.74,457.63L273.2,454.76L269.65,452.85L266.1,451.41L262.55,451.85L255.46,452.44L251.91,461.46L248.36,452.85L244.81,460.5L241.26,454.76L237.72,464.33L234.17,454.76L230.62,460.5L227.07,454.01L223.52,455.72L219.98,461.46L216.43,456.67L209.33,454.74L205.78,455.56L202.24,456.04L198.69,461.46L195.14,456.12L191.59,456.85L188.04,461.46L184.5,459.55L177.4,457.19L173.85,458.59L170.3,461.46L166.76,458.8L163.21,459.55L159.66,467.2L156.11,458.86L152.56,458.84L145.47,459.43L141.92,463.37L138.37,493.04L134.82,463.37L131.28,466.25L127.73,460.71L124.18,462.42L120.63,461.12L117.08,462.15L113.54,464.33L109.99,463.24L106.44,463.76L99.34,464.45L95.8,464.62L92.25,464.52L88.7,465.29L81.6,465.02L78.06,465.63L67.41,466.57L63.86,467.16L56.77,468.6L53.22,492.09L49.67,470.21L46.12,471.03L42.58,494L39.03,471.76L35.48,472.37L31.93,489.21L28.38,473.88L24.84,475.03L14.19,479.3L10.64,494L7.1,481.88L3.55,482.19L0,490.17" style="vector-effect: non-scaling-stroke; fill: none; stroke: rgb(255, 255, 255); stroke-opacity: 0; stroke-width: 3px; opacity: 1;"/></g><g class="points"/><g class="text"/></g><g class="trace scatter trace09bc93" style="stroke-miterlimit: 2; opacity: 1;"><g class="fills"/><g class="errorbars"/><g class="lines"><path class="js-line" d="M0,469.08L3.55,419.25L7.1,450.19L10.64,463.1L14.19,414.56L17.74,457.08L21.29,453.86L24.84,412.53L28.38,411.2L31.93,413.69L35.48,409.52L39.03,446.69L42.58,427.96L46.12,447.37L49.67,405.66L53.22,427.6L56.77,427L60.32,403.74L63.86,442.56L67.41,398.65L70.96,398.81L74.51,403.18L78.06,413.78L81.6,407.31L85.15,376.57L88.7,392.99L92.25,396.7L95.8,389.04L99.34,386.26L102.89,388.02L106.44,427.44L109.99,397.93L113.54,417.75L117.08,383.48L120.63,384.03L124.18,383.71L127.73,407.26L131.28,382.3L134.82,382.61L138.37,380.24L141.92,365.9L145.47,394.19L149.02,392.43L152.56,376.81L156.11,373L159.66,375.87L163.21,370.98L166.76,370.01L170.3,393.04L173.85,368.31L177.4,366.41L180.95,343.3L184.5,370.65L188.04,388.25L191.59,368.21L195.14,361.65L198.69,366.06L202.24,363.87L205.78,356.46L209.33,363.58L212.88,362.5L219.98,360.63L223.52,361.96L227.07,361.5L230.62,365.66L234.17,378.79L237.72,357.59L241.26,346.4L244.81,353.92L248.36,360L251.91,380.05L255.46,354L259,378.8L262.55,358.88L266.1,353.15L269.65,356.19L273.2,353.46L276.74,354.92L280.29,348.92L283.84,354.8L287.39,352.21L290.94,357.86L294.48,354.24L298.03,348.27L301.58,349L305.13,342.24L308.68,348.33L312.22,342.51L315.77,345.79L319.32,369.22L322.87,348.69L326.42,347.11L329.96,347.08L333.51,342.73L337.06,353.85L340.61,347.11L344.16,346.4L347.7,348.04L351.25,359.3L354.8,340.63L358.35,342.63L361.9,342.65L365.44,341.43L368.99,361L372.54,344.65L376.09,338.91L379.64,335.44L383.18,346.21L386.73,339.77L390.28,356.07L393.83,336.86L397.38,344.43L400.92,339.6L404.47,374.72L408.02,330.88L411.57,343.01L415.12,343.02L418.66,338.85L422.21,339.62L425.76,335.78L429.31,336.76L432.86,346.96L436.4,312.36L439.95,320.25L443.5,339.45L450.6,328.65L454.14,341.34L457.69,342.79L461.24,332.03L464.79,331.44L468.34,317.55L475.43,327.97L478.98,320.93L482.53,337.49L486.08,328.79L489.62,339.05L493.17,336.96L496.72,331.53L500.27,344.46L503.82,327.8L507.36,329.65L510.91,326.45L514.46,328.81L518.01,313.99L521.56,324.86L525.1,331.32L528.65,318.16L532.2,327.87L535.75,328.76L539.3,330.73L542.84,323.58L546.39,323.23L549.94,325.06L553.49,329.18L557.04,330.33L560.58,329.82L564.13,320.93L567.68,328.63L571.23,314.51L574.78,301.82L578.32,331.15L581.87,322.59L585.42,348.04L588.97,329.6L592.52,320.37L599.61,326.84L603.16,294.85L606.71,320.97L610.26,307.09L613.8,314.21L617.35,328.43L620.9,316.18L624.45,327.53L628,315.87L631.54,324.22L635.09,313.19L638.64,310.26L642.19,299.09L645.74,327.99L649.28,305.4L652.83,315.75L656.38,312.59L659.93,322.4L663.48,317.26L667.02,300.1L670.57,318.38L674.12,320.53L677.67,304.8L681.22,335.47L684.76,316.72L688.31,334.17L691.86,325.06L695.41,321.13L702.5,314.82L706.05,322.59L709.6,297.32L713.15,287.44L716.7,305.36L720.24,315.39L723.79,312.83L727.34,311.94L730.89,284.98L734.44,299.74L737.98,310.62L741.53,299.16L745.08,288.77L748.63,299.45L752.18,309.02L755.72,302.77L759.27,291.49L762.82,300.48L766.37,337.26L769.92,298.43L773.46,289.59L777.01,302.3L780.56,316L784.11,313.23L787.66,305.1L791.2,295.01L794.75,302.71L798.3,300.74L801.85,314.14L805.4,295.23L808.94,303.41L812.49,276.73L816.04,301.52L819.59,286.99L823.14,275.31L826.68,301.15L830.23,288.45L833.78,304.55L840.88,292.67L844.42,302.47L847.97,264.64L851.52,261.47L855.07,279.25L858.62,282.83L862.16,289.5L865.71,301.93L869.26,270.77L872.81,281.94L876.36,293.12L879.9,287.6L883.45,308.86L887,308.49" style="vector-effect: non-scaling-stroke; fill: none; stroke: rgb(0, 100, 80); stroke-opacity: 1; stroke-width: 3px; opacity: 1;"/></g><g class="points"/><g class="text"/></g><g class="trace scatter traceb65b15" style="stroke-miterlimit: 2; opacity: 1;"><g class="fills"><g><path class="js-fill" d="M0,412.4L3.55,412.15L7.1,406.07L10.64,400.36L14.19,400.92L17.74,400.13L21.29,394.03L28.38,386.69L31.93,377.81L35.48,370.87L39.03,367.84L46.12,360.13L49.67,356.26L53.22,349.71L56.77,346.31L60.32,343.15L63.86,335.26L67.41,325.9L70.96,320.51L74.51,315.07L78.06,311.3L81.6,307.78L85.15,298.47L88.7,289.92L92.25,283.81L95.8,279.41L99.34,271.96L102.89,264.75L106.44,259.5L109.99,254.93L113.54,248.61L120.63,235L124.18,230.35L127.73,221.66L131.28,218.02L138.37,208.85L141.92,209.28L149.02,206.54L152.56,206.79L156.11,205.29L159.66,206.39L163.21,203.13L166.76,201.91L170.3,196.87L173.85,197.77L177.4,198.35L180.95,201.45L184.5,202.31L188.04,199.25L191.59,201.35L195.14,201.03L198.69,197.81L202.24,197.66L205.78,196.05L209.33,198.25L212.88,198.21L216.43,193.85L227.07,186.8L230.62,187.82L234.17,185.06L237.72,180.24L244.81,188.49L248.36,185.52L251.91,182.88L255.46,182.52L259,181.22L262.55,184.91L266.1,187.26L269.65,187.4L273.2,186.84L276.74,187.9L280.29,185.71L283.84,181.58L287.39,181.12L290.94,178.1L298.03,180.16L301.58,175.59L305.13,180.76L308.68,177.65L312.22,177.67L315.77,173.58L319.32,172.07L322.87,172.47L326.42,174.59L329.96,173.62L333.51,174.86L337.06,170L340.61,171.82L344.16,172.01L351.25,181.18L354.8,181.08L358.35,177.88L361.9,180.97L365.44,181.35L368.99,183.84L372.54,184.11L376.09,188.8L379.64,188.3L383.18,186.48L386.73,189.92L390.28,190.98L393.83,192.83L397.38,192.64L400.92,189.29L404.47,188.34L408.02,187.68L411.57,185.64L415.12,188.64L418.66,188.43L422.21,185.58L425.76,186.69L429.31,186.46L432.86,184.35L436.4,182.9L439.95,183.03L447.05,181.79L450.6,180.22L454.14,183.42L457.69,189.1L461.24,191.17L464.79,190.79L468.34,194.96L471.88,195.88L475.43,198.75L478.98,204.59L482.53,201.56L486.08,205.54L489.62,205.16L493.17,210.77L500.27,209.81L503.82,209.66L507.36,211.42L510.91,210.56L514.46,213.35L518.01,213.47L521.56,214.33L525.1,208.43L532.2,205.12L535.75,202.12L539.3,200.32L542.84,200.49L549.94,202.14L553.49,201.72L557.04,201.2L560.58,203.76L564.13,202.86L567.68,204.07L574.78,206.19L578.32,210.21L581.87,211.67L585.42,210.77L588.97,210.77L592.52,209.98L596.06,206.48L599.61,210.46L603.16,208.85L606.71,211.52L610.26,211.88L613.8,209.43L617.35,208.05L620.9,208.47L624.45,210.42L628,210.71L635.09,207.88L638.64,210.12L642.19,209.85L645.74,207.07L649.28,202.27L652.83,199.69L656.38,197.26L659.93,200.3L663.48,197.16L667.02,196.41L670.57,193.24L674.12,194.21L681.22,194.69L684.76,189.92L688.31,189.18L691.86,189.6L695.41,186.71L698.96,187L702.5,189.52L706.05,188.05L713.15,193.94L716.7,191.17L720.24,197.58L723.79,197.96L727.34,195.36L730.89,195.63L734.44,194.46L737.98,194.29L745.08,194.5L748.63,193.66L759.27,193.27L762.82,190.98L769.92,193.6L773.46,197.73L777.01,194.15L780.56,197.91L784.11,195.17L787.66,196.01L791.2,199.51L794.75,200.68L798.3,202.63L801.85,200.22L805.4,200.8L808.94,199.76L812.49,199.32L816.04,199.99L819.59,199.05L823.14,200.16L826.68,203.51L830.23,202.25L833.78,201.26L837.33,195.95L840.88,199.74L844.42,199.42L847.97,200.74L851.52,201.24L855.07,201.6L858.62,204.01L862.16,206.79L865.71,208.28L872.81,211.04L876.36,209.16L883.45,210.19L887,209.66L887,387.5L883.45,385.72L879.9,385.93L876.36,387.19L872.81,387.12L869.26,388.34L858.62,389.59L855.07,388.05L851.52,387.12L847.97,387.04L844.42,387.81L840.88,387.48L837.33,386.66L833.78,386.92L830.23,386.81L826.68,383.36L823.14,382.06L819.59,383.23L816.04,383.29L812.49,381.68L801.85,381.76L798.3,381.55L794.75,382.04L791.2,381.07L784.11,383.1L780.56,386.29L773.46,385.81L769.92,386.91L766.37,386.68L762.82,388.36L759.27,387.84L755.72,390.01L748.63,389.11L745.08,389.76L741.53,389.68L737.98,383.98L727.34,383.65L723.79,382.94L720.24,383.82L716.7,381.62L709.6,380.59L706.05,382.24L691.86,382.25L688.31,382.6L684.76,382.66L681.22,381.93L674.12,384.26L670.57,383.92L659.93,384.38L656.38,384.57L652.83,384.57L649.28,388.46L645.74,389.11L642.19,388.97L638.64,388.92L635.09,390.85L624.45,390.1L620.9,390.24L617.35,388.78L613.8,390.66L610.26,391L606.71,390.47L599.61,390.89L596.06,391.17L588.97,391.67L585.42,391.96L578.32,393.32L574.78,393.59L571.23,394.75L567.68,394.2L564.13,392.44L560.58,398.39L557.04,392.3L553.49,391.29L546.39,393.45L542.84,391.35L539.3,393.57L535.75,394.03L532.2,395.1L528.65,395.17L521.56,394.85L518.01,394.66L507.36,394.45L503.82,394.96L500.27,395.79L496.72,395.63L493.17,394.16L489.62,394.58L486.08,394.22L482.53,395.92L478.98,398.2L475.43,397.95L471.88,399.08L468.34,402.24L461.24,401.87L457.69,400.25L447.05,400.36L443.5,400.57L439.95,406.05L436.4,407.79L432.86,407.83L429.31,409.8L425.76,408.63L422.21,408.75L418.66,408.09L415.12,408.31L408.02,405.51L404.47,409.59L400.92,413.05L397.38,412.92L383.18,412.13L379.64,414.3L376.09,413.97L372.54,412.21L368.99,411.79L365.44,415.9L361.9,420.19L358.35,418.53L354.8,419.83L351.25,423.75L347.7,420.59L344.16,419.94L337.06,424.61L333.51,425.86L329.96,425.05L326.42,422.89L322.87,423.16L319.32,422.22L315.77,422.64L312.22,421.93L308.68,424.82L305.13,424.8L301.58,427.27L298.03,427.1L290.94,428.04L287.39,428.37L283.84,427.39L280.29,429.95L276.74,426.32L273.2,426.53L266.1,426.09L262.55,425.46L255.46,426.2L251.91,426.18L248.36,421.7L244.81,421.7L241.26,419.69L237.72,419.9L227.07,414.14L223.52,414.74L219.98,413.53L216.43,414.16L209.33,414.05L205.78,414.64L198.69,416.36L195.14,418.41L184.5,419.52L180.95,423.68L177.4,425.34L173.85,425.63L159.66,434.57L156.11,438.05L149.02,442.64L145.47,444.75L134.82,452.64L131.28,452.75L124.18,456.94L120.63,457.12L113.54,457.29L109.99,459.68L92.25,471.6L88.7,472.91L85.15,475.45L81.6,475.49L78.06,475.57L74.51,476.83L60.32,481.77L56.77,481.69L53.22,482.63L49.67,482.69L46.12,483.72L42.58,483.63L35.48,483.93L31.93,484.24L17.74,486.29L14.19,487.53L0,488.35Z" style="fill: rgb(244, 196, 48); fill-opacity: 0.2; stroke-width: 0;"/></g></g><g class="errorbars"/><g class="lines"><path class="js-line" d="M0,412.4L3.55,412.15L7.1,406.07L10.64,400.36L14.19,400.92L17.74,400.13L21.29,394.03L28.38,386.69L31.93,377.81L35.48,370.87L39.03,367.84L46.12,360.13L49.67,356.26L53.22,349.71L56.77,346.31L60.32,343.15L63.86,335.26L67.41,325.9L70.96,320.51L74.51,315.07L78.06,311.3L81.6,307.78L85.15,298.47L88.7,289.92L92.25,283.81L95.8,279.41L99.34,271.96L102.89,264.75L106.44,259.5L109.99,254.93L113.54,248.61L120.63,235L124.18,230.35L127.73,221.66L131.28,218.02L138.37,208.85L141.92,209.28L149.02,206.54L152.56,206.79L156.11,205.29L159.66,206.39L163.21,203.13L166.76,201.91L170.3,196.87L173.85,197.77L177.4,198.35L180.95,201.45L184.5,202.31L188.04,199.25L191.59,201.35L195.14,201.03L198.69,197.81L202.24,197.66L205.78,196.05L209.33,198.25L212.88,198.21L216.43,193.85L227.07,186.8L230.62,187.82L234.17,185.06L237.72,180.24L244.81,188.49L248.36,185.52L251.91,182.88L255.46,182.52L259,181.22L262.55,184.91L266.1,187.26L269.65,187.4L273.2,186.84L276.74,187.9L280.29,185.71L283.84,181.58L287.39,181.12L290.94,178.1L298.03,180.16L301.58,175.59L305.13,180.76L308.68,177.65L312.22,177.67L315.77,173.58L319.32,172.07L322.87,172.47L326.42,174.59L329.96,173.62L333.51,174.86L337.06,170L340.61,171.82L344.16,172.01L351.25,181.18L354.8,181.08L358.35,177.88L361.9,180.97L365.44,181.35L368.99,183.84L372.54,184.11L376.09,188.8L379.64,188.3L383.18,186.48L386.73,189.92L390.28,190.98L393.83,192.83L397.38,192.64L400.92,189.29L404.47,188.34L408.02,187.68L411.57,185.64L415.12,188.64L418.66,188.43L422.21,185.58L425.76,186.69L429.31,186.46L432.86,184.35L436.4,182.9L439.95,183.03L447.05,181.79L450.6,180.22L454.14,183.42L457.69,189.1L461.24,191.17L464.79,190.79L468.34,194.96L471.88,195.88L475.43,198.75L478.98,204.59L482.53,201.56L486.08,205.54L489.62,205.16L493.17,210.77L500.27,209.81L503.82,209.66L507.36,211.42L510.91,210.56L514.46,213.35L518.01,213.47L521.56,214.33L525.1,208.43L532.2,205.12L535.75,202.12L539.3,200.32L542.84,200.49L549.94,202.14L553.49,201.72L557.04,201.2L560.58,203.76L564.13,202.86L567.68,204.07L574.78,206.19L578.32,210.21L581.87,211.67L585.42,210.77L588.97,210.77L592.52,209.98L596.06,206.48L599.61,210.46L603.16,208.85L606.71,211.52L610.26,211.88L613.8,209.43L617.35,208.05L620.9,208.47L624.45,210.42L628,210.71L635.09,207.88L638.64,210.12L642.19,209.85L645.74,207.07L649.28,202.27L652.83,199.69L656.38,197.26L659.93,200.3L663.48,197.16L667.02,196.41L670.57,193.24L674.12,194.21L681.22,194.69L684.76,189.92L688.31,189.18L691.86,189.6L695.41,186.71L698.96,187L702.5,189.52L706.05,188.05L713.15,193.94L716.7,191.17L720.24,197.58L723.79,197.96L727.34,195.36L730.89,195.63L734.44,194.46L737.98,194.29L745.08,194.5L748.63,193.66L759.27,193.27L762.82,190.98L769.92,193.6L773.46,197.73L777.01,194.15L780.56,197.91L784.11,195.17L787.66,196.01L791.2,199.51L794.75,200.68L798.3,202.63L801.85,200.22L805.4,200.8L808.94,199.76L812.49,199.32L816.04,199.99L819.59,199.05L823.14,200.16L826.68,203.51L830.23,202.25L833.78,201.26L837.33,195.95L840.88,199.74L844.42,199.42L847.97,200.74L851.52,201.24L855.07,201.6L858.62,204.01L862.16,206.79L865.71,208.28L872.81,211.04L876.36,209.16L883.45,210.19L887,209.66L887,387.5L883.45,385.72L879.9,385.93L876.36,387.19L872.81,387.12L869.26,388.34L858.62,389.59L855.07,388.05L851.52,387.12L847.97,387.04L844.42,387.81L840.88,387.48L837.33,386.66L833.78,386.92L830.23,386.81L826.68,383.36L823.14,382.06L819.59,383.23L816.04,383.29L812.49,381.68L801.85,381.76L798.3,381.55L794.75,382.04L791.2,381.07L784.11,383.1L780.56,386.29L773.46,385.81L769.92,386.91L766.37,386.68L762.82,388.36L759.27,387.84L755.72,390.01L748.63,389.11L745.08,389.76L741.53,389.68L737.98,383.98L727.34,383.65L723.79,382.94L720.24,383.82L716.7,381.62L709.6,380.59L706.05,382.24L691.86,382.25L688.31,382.6L684.76,382.66L681.22,381.93L674.12,384.26L670.57,383.92L659.93,384.38L656.38,384.57L652.83,384.57L649.28,388.46L645.74,389.11L642.19,388.97L638.64,388.92L635.09,390.85L624.45,390.1L620.9,390.24L617.35,388.78L613.8,390.66L610.26,391L606.71,390.47L599.61,390.89L596.06,391.17L588.97,391.67L585.42,391.96L578.32,393.32L574.78,393.59L571.23,394.75L567.68,394.2L564.13,392.44L560.58,398.39L557.04,392.3L553.49,391.29L546.39,393.45L542.84,391.35L539.3,393.57L535.75,394.03L532.2,395.1L528.65,395.17L521.56,394.85L518.01,394.66L507.36,394.45L503.82,394.96L500.27,395.79L496.72,395.63L493.17,394.16L489.62,394.58L486.08,394.22L482.53,395.92L478.98,398.2L475.43,397.95L471.88,399.08L468.34,402.24L461.24,401.87L457.69,400.25L447.05,400.36L443.5,400.57L439.95,406.05L436.4,407.79L432.86,407.83L429.31,409.8L425.76,408.63L422.21,408.75L418.66,408.09L415.12,408.31L408.02,405.51L404.47,409.59L400.92,413.05L397.38,412.92L383.18,412.13L379.64,414.3L376.09,413.97L372.54,412.21L368.99,411.79L365.44,415.9L361.9,420.19L358.35,418.53L354.8,419.83L351.25,423.75L347.7,420.59L344.16,419.94L337.06,424.61L333.51,425.86L329.96,425.05L326.42,422.89L322.87,423.16L319.32,422.22L315.77,422.64L312.22,421.93L308.68,424.82L305.13,424.8L301.58,427.27L298.03,427.1L290.94,428.04L287.39,428.37L283.84,427.39L280.29,429.95L276.74,426.32L273.2,426.53L266.1,426.09L262.55,425.46L255.46,426.2L251.91,426.18L248.36,421.7L244.81,421.7L241.26,419.69L237.72,419.9L227.07,414.14L223.52,414.74L219.98,413.53L216.43,414.16L209.33,414.05L205.78,414.64L198.69,416.36L195.14,418.41L184.5,419.52L180.95,423.68L177.4,425.34L173.85,425.63L159.66,434.57L156.11,438.05L149.02,442.64L145.47,444.75L134.82,452.64L131.28,452.75L124.18,456.94L120.63,457.12L113.54,457.29L109.99,459.68L92.25,471.6L88.7,472.91L85.15,475.45L81.6,475.49L78.06,475.57L74.51,476.83L60.32,481.77L56.77,481.69L53.22,482.63L49.67,482.69L46.12,483.72L42.58,483.63L35.48,483.93L31.93,484.24L17.74,486.29L14.19,487.53L0,488.35" style="vector-effect: non-scaling-stroke; fill: none; stroke: rgb(255, 255, 255); stroke-opacity: 0; stroke-width: 3px; opacity: 1;"/></g><g class="points"/><g class="text"/></g><g class="trace scatter trace350835" style="stroke-miterlimit: 2; opacity: 1;"><g class="fills"/><g class="errorbars"/><g class="lines"><path class="js-line" d="M0,457.51L3.55,456.01L7.1,452.8L14.19,448.47L17.74,446.88L28.38,442.33L31.93,439.07L35.48,437.72L39.03,435.46L46.12,433.05L49.67,430.21L53.22,428.47L56.77,427.98L60.32,426.94L63.86,423.63L70.96,419.98L74.51,416.58L85.15,412L88.7,409.25L95.8,406.58L99.34,402.37L102.89,401.01L106.44,398.8L109.99,395.28L113.54,393.1L124.18,385.94L127.73,381.56L131.28,380.54L134.82,377.74L138.37,376.1L141.92,375.81L145.47,374.83L149.02,372.85L152.56,371.6L156.11,369.14L163.21,365.49L166.76,364.89L170.3,362.39L173.85,362.68L177.4,362.63L180.95,361.42L184.5,360.42L188.04,360.24L191.59,359.74L195.14,358.17L198.69,356.64L202.24,356.22L205.78,355.82L209.33,356.97L212.88,356.36L216.43,356.53L237.72,346.23L241.26,347.67L244.81,347.61L248.36,345.09L251.91,346.04L255.46,345.37L262.55,345.32L266.1,345.91L273.2,344.37L276.74,346.19L280.29,345.96L283.84,343.69L287.39,345.33L290.94,344.57L298.03,346L301.58,343.55L305.13,346.42L308.68,345.58L315.77,345.4L319.32,344.25L333.51,344.47L337.06,343.83L344.16,342.95L347.7,344.31L351.25,344.23L354.8,342.88L361.9,343.64L365.44,341.76L368.99,340.04L372.54,340.63L376.09,341.35L379.64,340.89L383.18,337.65L386.73,336.96L400.92,336.48L404.47,337.19L411.57,339.17L415.12,338.69L418.66,338.46L422.21,339.13L425.76,340.56L429.31,338.96L432.86,337.16L436.4,336.54L439.95,336L443.5,332.78L447.05,332.98L450.6,332.15L457.69,332.58L461.24,334.41L464.79,332.76L468.34,333.7L471.88,331.49L475.43,330.44L478.98,332.71L482.53,329.79L486.08,330.61L489.62,330.61L493.17,330.36L496.72,329.22L507.36,329.13L510.91,328.82L514.46,329.38L518.01,328.94L525.1,326.1L528.65,326.16L532.2,325.68L535.75,323.45L539.3,323.89L542.84,322.87L546.39,323.56L549.94,322.23L553.49,322.09L557.04,320.37L560.58,323.05L564.13,322.32L567.68,321.16L571.23,318.67L574.78,316.73L578.32,316.43L581.87,317.28L585.42,316.72L588.97,316.09L592.52,314.28L596.06,313.71L599.61,312.15L603.16,311.05L606.71,311.65L610.26,313.14L613.8,312.26L617.35,309.14L620.9,309.95L628,306.66L631.54,305.62L638.64,303.22L642.19,304.67L645.74,302.74L649.28,302.11L656.38,297.84L659.93,299.33L663.48,298.83L667.02,297.21L674.12,298.12L677.67,295.4L681.22,295.54L684.76,294.02L688.31,293.59L691.86,294.3L695.41,291.97L698.96,293.28L706.05,291.58L709.6,291.49L713.15,292.44L716.7,291.53L720.24,293.72L723.79,293.23L737.98,291.58L741.53,293.19L745.08,294.37L748.63,296.55L752.18,297.65L755.72,297.31L759.27,296.66L762.82,297.07L766.37,297.45L769.92,299.19L780.56,295.9L784.11,293.05L787.66,293.43L791.2,292.7L794.75,295.36L798.3,295.24L801.85,295.57L805.4,297.19L812.49,295.72L816.04,297.59L823.14,295.93L826.68,296.04L830.23,298.87L833.78,298.31L837.33,298.17L840.88,296.55L844.42,298.14L847.97,298.33L851.52,297.85L855.07,299.4L858.62,297.96L862.16,298.91L865.71,298.86L869.26,297.76L872.81,297.46L876.36,295.7L887,295.5" style="vector-effect: non-scaling-stroke; fill: none; stroke: rgb(244, 196, 48); stroke-opacity: 1; stroke-width: 3px; opacity: 1;"/></g><g class="points"/><g class="text"/></g></g></g><g class="overplot"/><path class="xlines-above crisp" d="M0,0" style="fill: none;"/><path class="ylines-above crisp" d="M0,0" style="fill: none;"/><g class="overlines-above"/><g class="xaxislayer-above"><g class="xtick"><text text-anchor="middle" x="0" y="639" transform="translate(80,0)" style="font-family: 'Open Sans', verdana, arial, sans-serif; font-size: 18px; fill: rgb(68, 68, 68); fill-opacity: 1; white-space: pre; opacity: 1;">50</text></g><g class="xtick"><text text-anchor="middle" x="0" y="639" style="font-family: 'Open Sans', verdana, arial, sans-serif; font-size: 18px; fill: rgb(68, 68, 68); fill-opacity: 1; white-space: pre; opacity: 1;" transform="translate(257.4,0)">100</text></g><g class="xtick"><text text-anchor="middle" x="0" y="639" style="font-family: 'Open Sans', verdana, arial, sans-serif; font-size: 18px; fill: rgb(68, 68, 68); fill-opacity: 1; white-space: pre; opacity: 1;" transform="translate(434.8,0)">150</text></g><g class="xtick"><text text-anchor="middle" x="0" y="639" style="font-family: 'Open Sans', verdana, arial, sans-serif; font-size: 18px; fill: rgb(68, 68, 68); fill-opacity: 1; white-space: pre; opacity: 1;" transform="translate(612.2,0)">200</text></g><g class="xtick"><text text-anchor="middle" x="0" y="639" style="font-family: 'Open Sans', verdana, arial, sans-serif; font-size: 18px; fill: rgb(68, 68, 68); fill-opacity: 1; white-space: pre; opacity: 1;" transform="translate(789.6,0)">250</text></g><g class="xtick"><text text-anchor="middle" x="0" y="639" style="font-family: 'Open Sans', verdana, arial, sans-serif; font-size: 18px; fill: rgb(68, 68, 68); fill-opacity: 1; white-space: pre; opacity: 1;" transform="translate(967,0)">300</text></g></g><g class="yaxislayer-above"><g class="ytick"><text text-anchor="end" x="79" y="6.3" transform="translate(0,604.53)" style="font-family: 'Open Sans', verdana, arial, sans-serif; font-size: 18px; fill: rgb(68, 68, 68); fill-opacity: 1; white-space: pre; opacity: 1;">0</text></g><g class="ytick"><text text-anchor="end" x="79" y="6.3" style="font-family: 'Open Sans', verdana, arial, sans-serif; font-size: 18px; fill: rgb(68, 68, 68); fill-opacity: 1; white-space: pre; opacity: 1;" transform="translate(0,508.82)">100</text></g><g class="ytick"><text text-anchor="end" x="79" y="6.3" style="font-family: 'Open Sans', verdana, arial, sans-serif; font-size: 18px; fill: rgb(68, 68, 68); fill-opacity: 1; white-space: pre; opacity: 1;" transform="translate(0,413.12)">200</text></g><g class="ytick"><text text-anchor="end" x="79" y="6.3" style="font-family: 'Open Sans', verdana, arial, sans-serif; font-size: 18px; fill: rgb(68, 68, 68); fill-opacity: 1; white-space: pre; opacity: 1;" transform="translate(0,317.40999999999997)">300</text></g><g class="ytick"><text text-anchor="end" x="79" y="6.3" style="font-family: 'Open Sans', verdana, arial, sans-serif; font-size: 18px; fill: rgb(68, 68, 68); fill-opacity: 1; white-space: pre; opacity: 1;" transform="translate(0,221.70999999999998)">400</text></g><g class="ytick"><text text-anchor="end" x="79" y="6.3" style="font-family: 'Open Sans', verdana, arial, sans-serif; font-size: 18px; fill: rgb(68, 68, 68); fill-opacity: 1; white-space: pre; opacity: 1;" transform="translate(0,126)">500</text></g></g><g class="overaxes-above"/></g></g><g class="polarlayer"/><g class="smithlayer"/><g class="ternarylayer"/><g class="geolayer"/><g class="funnelarealayer"/><g class="pielayer"/><g class="iciclelayer"/><g class="treemaplayer"/><g class="sunburstlayer"/><g class="glimages"/><defs id="topdefs-d85e96"><g class="clips"/><clipPath id="legendd85e96"><rect width="203" height="63" x="0" y="0"/></clipPath></defs><g class="layer-above"><g class="imagelayer"/><g class="shapelayer"/></g><g class="infolayer"><g class="legend" pointer-events="all" transform="translate(984.74,100)"><rect class="bg" shape-rendering="crispEdges" width="203" height="63" x="0" y="0" style="stroke: rgb(68, 68, 68); stroke-opacity: 1; fill: rgb(255, 255, 255); fill-opacity: 1; stroke-width: 0px;"/><g class="scrollbox" transform="" clip-path="url(#legendd85e96)"><g class="groups"><g class="traces" transform="translate(0,18.200000000000003)" style="opacity: 1;"><text class="legendtext" text-anchor="start" x="40" y="7.0200000000000005" style="font-family: 'Open Sans', verdana, arial, sans-serif; font-size: 18px; fill: rgb(68, 68, 68); fill-opacity: 1; white-space: pre;">Cart Pole - DQN</text><g class="layers" style="opacity: 1;"><g class="legendfill"/><g class="legendlines"><path class="js-line" d="M5,0h30" style="fill: none; stroke: rgb(0, 100, 80); stroke-opacity: 1; stroke-width: 3px;"/></g><g class="legendsymbols"><g class="legendpoints"/></g></g><rect class="legendtoggle" x="0" y="-13.200000000000001" width="197.6875" height="26.400000000000002" style="fill: rgb(0, 0, 0); fill-opacity: 0;"/></g><g class="traces" transform="translate(0,44.6)" style="opacity: 1;"><text class="legendtext" text-anchor="start" x="40" y="7.0200000000000005" style="font-family: 'Open Sans', verdana, arial, sans-serif; font-size: 18px; fill: rgb(68, 68, 68); fill-opacity: 1; white-space: pre;">Cart Pole - DDQN</text><g class="layers" style="opacity: 1;"><g class="legendfill"/><g class="legendlines"><path class="js-line" d="M5,0h30" style="fill: none; stroke: rgb(244, 196, 48); stroke-opacity: 1; stroke-width: 3px;"/></g><g class="legendsymbols"><g class="legendpoints"/></g></g><rect class="legendtoggle" x="0" y="-13.200000000000001" width="197.6875" height="26.400000000000002" style="fill: rgb(0, 0, 0); fill-opacity: 0;"/></g></g></g><rect class="scrollbar" rx="20" ry="3" width="0" height="0" x="0" y="0" style="fill: rgb(128, 139, 164); fill-opacity: 1;"/></g><g class="g-gtitle"><text class="gtitle" x="600" y="50" text-anchor="middle" dy="0em" style="font-family: 'Open Sans', verdana, arial, sans-serif; font-size: 25px; fill: rgb(68, 68, 68); opacity: 1; font-weight: normal; white-space: pre;">DQN vs DDQN - Cart Pole 50 episodes moving average)</text></g><g class="g-xtitle"><text class="xtitle" x="523.5" y="672.9" text-anchor="middle" style="font-family: 'Open Sans', verdana, arial, sans-serif; font-size: 22px; fill: rgb(68, 68, 68); opacity: 1; font-weight: normal; white-space: pre;">Episodes</text></g><g class="g-ytitle" transform="translate(7.244140625,0)"><text class="ytitle" transform="rotate(-90,14.756249999999994,360)" x="14.756249999999994" y="360" text-anchor="middle" style="font-family: 'Open Sans', verdana, arial, sans-serif; font-size: 22px; fill: rgb(68, 68, 68); opacity: 1; font-weight: normal; white-space: pre;">Rewards</text></g><g class="annotation" data-index="0" style="opacity: 1;"><g class="annotation-text-g" transform="rotate(0,1084.25,250.99999999999997)"><g class="cursor-pointer" transform="translate(980,204)"><rect class="bg" x="0.5" y="0.5" width="208" height="93" style="stroke-width: 1px; stroke: rgb(0, 0, 0); stroke-opacity: 0; fill: rgb(0, 0, 0); fill-opacity: 0;"/><text class="annotation-text" text-anchor="middle" x="104.609375" y="18" style="font-family: Arial; font-size: 18px; fill: rgb(68, 68, 68); fill-opacity: 1; white-space: pre;"><tspan class="line" dy="0em" x="104.609375" y="18"><tspan style="font-weight:bold">Hiperparâmetros:</tspan> </tspan><tspan class="line" dy="1.3em" x="104.609375" y="18">γ= 0.99, ε= 1.0</tspan><tspan class="line" dy="2.6em" x="104.609375" y="18">ε_min= 0.01, ε_dec= 0.99</tspan><tspan class="line" dy="3.9000000000000004em" x="104.609375" y="18"> α= 0.001, batch= 64</tspan></text></g></g></g></g></svg>