<svg class="main-svg" xmlns="http://www.w3.org/2000/svg" xmlns:xlink="http://www.w3.org/1999/xlink" width="1200" height="700" style="" viewBox="0 0 1200 700"><rect x="0" y="0" width="1200" height="700" style="fill: rgb(255, 255, 255); fill-opacity: 1;"/><defs id="defs-4ca2e0"><g class="clips"><clipPath id="clip4ca2e0xyplot" class="plotclip"><rect width="850" height="520"/></clipPath><clipPath class="axesclip" id="clip4ca2e0x"><rect x="80" y="0" width="850" height="700"/></clipPath><clipPath class="axesclip" id="clip4ca2e0y"><rect x="0" y="100" width="1200" height="520"/></clipPath><clipPath class="axesclip" id="clip4ca2e0xy"><rect x="80" y="100" width="850" height="520"/></clipPath></g><g class="gradients"/><g class="patterns"/></defs><g class="bglayer"/><g class="layer-below"><g class="imagelayer"/><g class="shapelayer"/></g><g class="cartesianlayer"><g class="subplot xy"><g class="layer-subplot"><g class="shapelayer"/><g class="imagelayer"/></g><g class="minor-gridlayer"><g class="x"/><g class="y"/></g><g class="gridlayer"><g class="x"><path class="xgrid crisp" transform="translate(174.44,0)" d="M0,100v520" style="stroke: rgb(238, 238, 238); stroke-opacity: 1; stroke-width: 1px;"/><path class="xgrid crisp" transform="translate(268.89,0)" d="M0,100v520" style="stroke: rgb(238, 238, 238); stroke-opacity: 1; stroke-width: 1px;"/><path class="xgrid crisp" transform="translate(363.33,0)" d="M0,100v520" style="stroke: rgb(238, 238, 238); stroke-opacity: 1; stroke-width: 1px;"/><path class="xgrid crisp" transform="translate(457.78,0)" d="M0,100v520" style="stroke: rgb(238, 238, 238); stroke-opacity: 1; stroke-width: 1px;"/><path class="xgrid crisp" transform="translate(552.22,0)" d="M0,100v520" style="stroke: rgb(238, 238, 238); stroke-opacity: 1; stroke-width: 1px;"/><path class="xgrid crisp" transform="translate(646.67,0)" d="M0,100v520" style="stroke: rgb(238, 238, 238); stroke-opacity: 1; stroke-width: 1px;"/><path class="xgrid crisp" transform="translate(741.11,0)" d="M0,100v520" style="stroke: rgb(238, 238, 238); stroke-opacity: 1; stroke-width: 1px;"/><path class="xgrid crisp" transform="translate(835.56,0)" d="M0,100v520" style="stroke: rgb(238, 238, 238); stroke-opacity: 1; stroke-width: 1px;"/></g><g class="y"><path class="ygrid crisp" transform="translate(0,611.01)" d="M80,0h850" style="stroke: rgb(238, 238, 238); stroke-opacity: 1; stroke-width: 1px;"/><path class="ygrid crisp" transform="translate(0,537.51)" d="M80,0h850" style="stroke: rgb(238, 238, 238); stroke-opacity: 1; stroke-width: 1px;"/><path class="ygrid crisp" transform="translate(0,464.01)" d="M80,0h850" style="stroke: rgb(238, 238, 238); stroke-opacity: 1; stroke-width: 1px;"/><path class="ygrid crisp" transform="translate(0,390.51)" d="M80,0h850" style="stroke: rgb(238, 238, 238); stroke-opacity: 1; stroke-width: 1px;"/><path class="ygrid crisp" transform="translate(0,317.02)" d="M80,0h850" style="stroke: rgb(238, 238, 238); stroke-opacity: 1; stroke-width: 1px;"/><path class="ygrid crisp" transform="translate(0,243.52)" d="M80,0h850" style="stroke: rgb(238, 238, 238); stroke-opacity: 1; stroke-width: 1px;"/></g></g><g class="zerolinelayer"><path class="yzl zl crisp" transform="translate(0,170.01999999999998)" d="M80,0h850" style="stroke: rgb(68, 68, 68); stroke-opacity: 1; stroke-width: 1px;"/></g><path class="xlines-below"/><path class="ylines-below"/><g class="overlines-below"/><g class="xaxislayer-below"/><g class="yaxislayer-below"/><g class="overaxes-below"/><g class="plot" transform="translate(80,100)" clip-path="url(#clip4ca2e0xyplot)"><g class="scatterlayer mlayer"><g class="trace scatter tracee4dbf0" style="stroke-miterlimit: 2; opacity: 1;"><g class="fills"><g><path class="js-fill" d="M0,403.92L1.89,393.01L3.78,390.73L7.56,391.47L9.44,390.64L11.33,389.74L13.22,384.97L15.11,385.18L17,378.35L18.89,377.65L20.78,365.85L22.67,365.55L24.56,358.89L26.44,346.15L28.33,351.42L30.22,350.12L32.11,352.74L34,354.68L35.89,348.65L39.67,341.58L41.56,337.59L43.44,335.91L45.33,325.17L47.22,323.1L49.11,322.98L51,322.74L52.89,316.87L54.78,316.23L56.67,309.83L58.56,303.59L60.44,301.94L62.33,300.87L64.22,297.44L66.11,292.25L68,289.89L69.89,289.38L71.78,281.06L73.67,274.45L75.56,279.7L77.44,278.5L79.33,272.82L81.22,273.26L83.11,271.92L85,270.01L86.89,264.04L88.78,265.76L90.67,264.51L92.56,265.83L94.44,259.83L96.33,261.39L98.22,260.86L100.11,257.2L102,250.33L105.78,240.99L107.67,241.92L109.56,239.92L111.44,236.77L115.22,228.06L117.11,228.45L119,231.28L120.89,236.51L122.78,234.12L124.67,233.82L126.56,236.13L128.44,232.49L130.33,234.7L132.22,231.32L134.11,237.64L136,237.03L137.89,235.65L139.78,236.81L141.67,236.02L143.56,231.34L145.44,229.09L147.33,238.22L149.22,236.32L151.11,236.72L153,236.45L154.89,233.52L156.78,234.5L158.67,236.9L160.56,244.93L162.44,241.34L164.33,234.1L166.22,230.95L168.11,230.52L170,222.43L171.89,219.43L173.78,219.15L175.67,217.78L177.56,205.96L179.44,203.37L181.33,206.96L183.22,202.11L185.11,203.99L187,201.13L188.89,201.48L190.78,203.18L192.67,200.1L194.56,197.58L196.44,197.71L198.33,208.76L200.22,210.19L202.11,203.56L204,217.32L205.89,217.14L207.78,221.08L209.67,224.44L211.56,217.54L213.44,213.92L215.33,212.94L217.22,207.49L219.11,210.45L221,202.07L222.89,201.36L224.78,205.01L226.67,203.47L228.56,201.38L230.44,207.52L232.33,208.17L234.22,205.59L236.11,205.97L238,204.04L239.89,202.36L241.78,196.86L247.44,168.37L249.33,172.64L251.22,164.81L253.11,163.23L255,164.19L256.89,157.28L260.67,133.03L262.56,138.66L264.44,138.7L266.33,134.38L268.22,147.54L270.11,146.8L272,145.98L273.89,150.67L275.78,149.21L277.67,144.36L279.56,143.95L281.44,145.56L283.33,146.74L285.22,151.35L287.11,146.73L289,155.3L290.89,154.25L292.78,148.43L294.67,155.16L296.56,158.87L298.44,160.82L300.33,156.15L302.22,161.55L304.11,164.13L307.89,152.53L309.78,155.87L313.56,149.49L315.44,140.13L317.33,134.5L319.22,137.97L321.11,139.23L323,147.2L324.89,146.55L326.78,149.69L328.67,152.22L330.56,157.79L332.44,163.95L334.33,174.67L338.11,177.34L340,182.81L341.89,183.96L343.78,190.18L345.67,193.57L347.56,189.8L349.44,193.33L351.33,202.85L355.11,221.35L357,223.2L358.89,224.44L360.78,216.42L362.67,211.46L364.56,209.7L366.44,215.35L368.33,215.21L370.22,212.79L372.11,216.36L377.78,225.24L379.67,221.65L381.56,220.88L383.44,212.79L385.33,201.03L387.22,203.8L389.11,204.59L391,200.7L392.89,198.04L394.78,191.97L396.67,190.32L398.56,192.39L400.44,193.71L402.33,187.14L408,165.3L409.89,159.75L413.67,163.23L415.56,161.82L417.44,161.75L419.33,166.03L421.22,167.97L423.11,163.91L425,160.14L426.89,152.85L428.78,144.82L430.67,142.6L434.44,153.73L436.33,153.22L440.11,149.26L442,149.13L443.89,150L445.78,156.47L451.44,140.39L453.33,137.66L455.22,132.19L457.11,138.74L459,137.52L460.89,137.31L462.78,137.91L464.67,135.07L466.56,131.1L468.44,134.29L470.33,134.4L472.22,135.32L474.11,130.32L476,118.15L477.89,118.42L479.78,119.6L481.67,119.68L483.56,122.25L485.44,109.89L487.33,112.3L489.22,113.07L491.11,109.57L493,102.03L494.89,107.3L496.78,113.44L498.67,109.13L500.56,112.88L502.44,127.18L504.33,125.11L506.22,133.41L511.89,170.41L513.78,175.03L515.67,176.58L517.56,176.74L519.44,178.56L521.33,182.28L523.22,184L525.11,177.93L527,176.65L528.89,172.64L530.78,173.78L532.67,172.99L534.56,170.57L536.44,165.31L540.22,146.89L542.11,146.87L545.89,163.22L547.78,163.38L549.67,161.29L551.56,150.91L553.44,152.49L555.33,137.85L557.22,129.57L559.11,128.52L561,140.05L562.89,130.96L564.78,116.42L566.67,117.81L568.56,110.06L570.44,116.96L574.22,104.92L576.11,106.02L578,103.37L579.89,112.29L581.78,110.77L583.67,115.34L585.56,117.49L587.44,123.59L589.33,120.59L591.22,121.51L593.11,123.43L595,118.39L596.89,105.62L598.78,103.08L602.56,90.8L604.44,78.91L606.33,75.52L608.22,69.86L610.11,60.17L612,66.42L613.89,67.62L615.78,61.48L617.67,61.33L619.56,68.84L621.44,71.05L623.33,62.09L625.22,60.26L627.11,70.67L630.89,77.34L632.78,82.73L634.67,96.59L636.56,98.16L640.33,92.4L642.22,92.18L646,105.56L647.89,104.13L649.78,105.88L651.67,114.16L655.44,114.83L657.33,122.63L659.22,131.06L661.11,128.2L663,135.71L664.89,139.97L666.78,145.69L668.67,148.53L670.56,142.46L672.44,145.86L674.33,143.2L676.22,152.5L680,133L681.89,135.71L685.67,136.83L687.56,126.04L689.44,117.64L691.33,115.92L693.22,118.47L695.11,124.76L697,126.51L698.89,124.59L700.78,118.26L702.67,119.39L706.44,118.04L708.33,110.67L712.11,127.82L714,124.36L715.89,121.35L717.78,134.35L719.67,129.52L721.56,130.38L723.44,130.57L725.33,127.5L727.22,127.21L729.11,118.14L731,115.96L732.89,115.74L734.78,115.14L736.67,116.85L738.56,102.59L740.44,108.51L742.33,103.48L744.22,110.46L746.11,114.09L748,114.51L749.89,101.44L751.78,102.29L753.67,99.6L755.56,99.14L757.44,93.58L759.33,92.95L761.22,97.06L763.11,95.22L765,94.93L766.89,90.64L768.78,90.28L770.67,85.65L772.56,87.28L774.44,100.57L776.33,91.32L778.22,95.79L780.11,92.16L782,104.02L785.78,116.02L787.67,113.93L789.56,105.59L791.44,105.39L793.33,108.62L795.22,115.07L797.11,113.95L799,116.5L800.89,110.64L802.78,118.67L804.67,117.73L806.56,120.05L808.44,115.91L810.33,123.54L812.22,119.27L814.11,119.04L816,116.02L817.89,114.98L819.78,107.63L821.67,106.22L823.56,105.51L825.44,106.44L827.33,110.98L829.22,106.85L833,109.8L834.89,97.42L836.78,107.94L838.67,110.07L840.56,108.94L842.44,104.35L846.22,104.28L848.11,106.39L850,107.92L850,202.8L848.11,199.99L846.22,199.84L842.44,203.04L840.56,204.98L836.78,211.68L834.89,209.46L833,214.19L831.11,222.38L829.22,224.44L827.33,225.07L825.44,226.23L823.56,231.48L819.78,231.15L817.89,225.37L816,231.5L814.11,231.35L812.22,232.42L810.33,240.47L808.44,240.99L806.56,244.96L804.67,252.73L802.78,250.36L800.89,251.55L799,245.02L797.11,248.14L795.22,243.28L793.33,242.66L791.44,237.91L789.56,246.5L787.67,250.92L785.78,250.62L783.89,255.01L782,251.89L780.11,254.21L778.22,260.62L776.33,262.7L774.44,263.99L772.56,262.16L770.67,258.38L768.78,264.61L765,253.63L763.11,254.3L761.22,253.77L759.33,258.93L757.44,245.47L755.56,240.72L753.67,243.87L751.78,251.2L748,254.59L746.11,260.39L744.22,259.5L742.33,260.68L740.44,261.32L738.56,260.81L736.67,256.21L734.78,256.69L732.89,255.75L731,255.8L729.11,253.77L727.22,259.03L721.56,261.72L719.67,269.28L717.78,267.12L715.89,259.58L714,262.3L712.11,263.26L710.22,260.24L708.33,264.06L704.56,263.02L702.67,260.15L700.78,260.71L698.89,260.42L695.11,258.2L693.22,252.37L691.33,252.31L689.44,245.08L687.56,250.06L685.67,250.04L683.78,244.45L681.89,242.97L680,248.69L678.11,249.24L676.22,254.56L674.33,253.04L672.44,247.87L670.56,250.05L668.67,255.4L666.78,250.7L664.89,249.14L663,258.63L661.11,262.48L659.22,256.53L655.44,252.44L653.56,254.88L651.67,249.74L649.78,247.45L647.89,241.8L646,244.34L644.11,243.3L642.22,248.86L640.33,247.02L638.44,247.73L636.56,242.19L634.67,240.71L632.78,239.95L630.89,234.99L629,235.01L627.11,233.54L625.22,228.83L623.33,227.96L621.44,236.3L619.56,238.85L617.67,241.79L615.78,236.03L613.89,241.72L612,255.7L606.33,267.68L604.44,267.67L602.56,269.28L600.67,274.5L598.78,277.01L596.89,284.7L595,287.68L593.11,285.85L589.33,275.5L587.44,267.73L583.67,278.86L581.78,290.98L579.89,286.53L578,291.91L574.22,284.38L572.33,276.65L570.44,292.81L568.56,294.57L566.67,305.5L564.78,311.92L562.89,298.68L561,294.87L559.11,282.94L557.22,285.11L555.33,284.45L553.44,286.8L551.56,287.52L549.67,304.16L547.78,300.23L545.89,301.96L544,303.44L542.11,308.94L540.22,314.07L538.33,302.12L536.44,305.22L534.56,291.51L532.67,291.78L530.78,293.43L525.11,274.84L523.22,273.03L521.33,263.14L519.44,262.57L517.56,259.4L515.67,259.06L513.78,259.55L511.89,263.26L510,258.68L508.11,265.13L506.22,263.07L504.33,265.37L502.44,265.68L500.56,269.02L498.67,266.12L496.78,266.68L494.89,269.86L493,266.8L491.11,271.42L489.22,262.64L487.33,266.28L485.44,271.61L483.56,270.38L481.67,265.54L479.78,263.21L477.89,262.98L476,264L474.11,259.87L472.22,257.97L470.33,260.83L468.44,263.94L466.56,261.38L462.78,257.64L460.89,253.17L455.22,260.5L453.33,264.8L451.44,265.15L449.56,269.03L447.67,275.03L445.78,275.03L443.89,277.36L442,270.09L440.11,274.86L438.22,269.79L436.33,270.8L434.44,273.95L430.67,262.97L428.78,263.98L426.89,260.96L425,255.86L423.11,265.01L421.22,268.02L419.33,269.1L417.44,265.31L413.67,275.99L411.78,270.31L408,252.15L406.11,250.77L404.22,253.89L402.33,258.73L400.44,256.83L398.56,261.35L396.67,257.82L394.78,258.29L392.89,257.48L391,257.62L389.11,260.88L387.22,270.16L385.33,272.47L383.44,272.03L377.78,289.04L375.89,283.91L374,283.26L372.11,285.03L370.22,289.11L368.33,287.55L364.56,293.02L362.67,294.16L360.78,298.55L358.89,294.18L357,293.03L355.11,294.46L353.22,288.92L351.33,289.61L349.44,288.35L347.56,296.07L345.67,309.06L343.78,308.91L341.89,312.15L340,300.67L338.11,302.63L336.22,308.22L334.33,310.02L332.44,310.24L330.56,316.31L328.67,315.58L324.89,327.32L323,330.5L321.11,344.48L319.22,344.97L317.33,346.37L315.44,339.71L313.56,342.47L311.67,343.65L309.78,349.62L307.89,350.05L306,349.06L304.11,350.41L302.22,359.44L300.33,360.19L298.44,354.67L296.56,355.22L294.67,355.13L292.78,348.61L290.89,345.39L289,345.07L285.22,340.39L283.33,337.92L281.44,347.1L279.56,347.99L275.78,345.96L273.89,356.77L270.11,352.02L268.22,355.37L266.33,353.32L264.44,357.44L262.56,354.98L260.67,356.54L258.78,361.39L256.89,362.8L255,369.83L253.11,373.16L251.22,361.68L249.33,366.45L247.44,365.39L245.56,372.22L243.67,371.19L241.78,371.35L239.89,366.6L238,370.24L234.22,375.04L232.33,374.52L228.56,377.3L226.67,371.88L224.78,377.26L222.89,371.16L221,376.45L219.11,375.04L217.22,375.43L215.33,370.19L213.44,364.53L211.56,362.38L209.67,354.38L207.78,351.53L205.89,353.68L204,361.25L198.33,362.75L196.44,365.62L194.56,363.16L192.67,357.87L188.89,361.81L187,353.99L185.11,353.25L183.22,366.23L177.56,404.37L175.67,404.57L173.78,407.83L171.89,412.59L170,407.77L168.11,407.75L166.22,409.94L164.33,409.78L162.44,416.83L160.56,427.74L156.78,409.44L154.89,409.72L153,410.57L151.11,404.79L149.22,400.37L147.33,402.47L145.44,399.95L143.56,399.11L139.78,387.12L137.89,386.57L134.11,390.67L132.22,383.86L130.33,393.95L128.44,396.03L126.56,402.04L124.67,414.94L122.78,412.43L120.89,412.22L119,413.73L117.11,407.32L115.22,401.15L113.33,398.46L111.44,395.31L109.56,397.68L107.67,395.66L105.78,400.27L103.89,404.76L102,397.66L96.33,389.87L94.44,384.53L92.56,380.65L90.67,373.71L86.89,376.98L85,381.64L83.11,385.13L81.22,392.57L79.33,394.68L77.44,404.36L75.56,400.7L73.67,400.54L71.78,401.89L69.89,407.07L64.22,401.76L62.33,401.02L60.44,407.64L58.56,409.49L56.67,409.55L54.78,417.85L52.89,415.62L51,418.34L49.11,414.59L47.22,418.23L45.33,421.15L43.44,428.32L41.56,428.28L39.67,433.3L37.78,438.63L35.89,441.28L34,439.25L32.11,443.99L30.22,441.78L28.33,448.2L24.56,455.21L22.67,452.91L20.78,448.52L18.89,450.89L17,457.88L15.11,461.44L13.22,462.84L11.33,463.14L9.44,470.29L7.56,469.11L5.67,473.7L3.78,484.61L1.89,486.95L0,469.12Z" style="fill: rgb(0, 100, 80); fill-opacity: 0.2; stroke-width: 0;"/></g></g><g class="errorbars"/><g class="lines"><path class="js-line" d="M0,403.92L1.89,393.01L3.78,390.73L7.56,391.47L9.44,390.64L11.33,389.74L13.22,384.97L15.11,385.18L17,378.35L18.89,377.65L20.78,365.85L22.67,365.55L24.56,358.89L26.44,346.15L28.33,351.42L30.22,350.12L32.11,352.74L34,354.68L35.89,348.65L39.67,341.58L41.56,337.59L43.44,335.91L45.33,325.17L47.22,323.1L49.11,322.98L51,322.74L52.89,316.87L54.78,316.23L56.67,309.83L58.56,303.59L60.44,301.94L62.33,300.87L64.22,297.44L66.11,292.25L68,289.89L69.89,289.38L71.78,281.06L73.67,274.45L75.56,279.7L77.44,278.5L79.33,272.82L81.22,273.26L83.11,271.92L85,270.01L86.89,264.04L88.78,265.76L90.67,264.51L92.56,265.83L94.44,259.83L96.33,261.39L98.22,260.86L100.11,257.2L102,250.33L105.78,240.99L107.67,241.92L109.56,239.92L111.44,236.77L115.22,228.06L117.11,228.45L119,231.28L120.89,236.51L122.78,234.12L124.67,233.82L126.56,236.13L128.44,232.49L130.33,234.7L132.22,231.32L134.11,237.64L136,237.03L137.89,235.65L139.78,236.81L141.67,236.02L143.56,231.34L145.44,229.09L147.33,238.22L149.22,236.32L151.11,236.72L153,236.45L154.89,233.52L156.78,234.5L158.67,236.9L160.56,244.93L162.44,241.34L164.33,234.1L166.22,230.95L168.11,230.52L170,222.43L171.89,219.43L173.78,219.15L175.67,217.78L177.56,205.96L179.44,203.37L181.33,206.96L183.22,202.11L185.11,203.99L187,201.13L188.89,201.48L190.78,203.18L192.67,200.1L194.56,197.58L196.44,197.71L198.33,208.76L200.22,210.19L202.11,203.56L204,217.32L205.89,217.14L207.78,221.08L209.67,224.44L211.56,217.54L213.44,213.92L215.33,212.94L217.22,207.49L219.11,210.45L221,202.07L222.89,201.36L224.78,205.01L226.67,203.47L228.56,201.38L230.44,207.52L232.33,208.17L234.22,205.59L236.11,205.97L238,204.04L239.89,202.36L241.78,196.86L247.44,168.37L249.33,172.64L251.22,164.81L253.11,163.23L255,164.19L256.89,157.28L260.67,133.03L262.56,138.66L264.44,138.7L266.33,134.38L268.22,147.54L270.11,146.8L272,145.98L273.89,150.67L275.78,149.21L277.67,144.36L279.56,143.95L281.44,145.56L283.33,146.74L285.22,151.35L287.11,146.73L289,155.3L290.89,154.25L292.78,148.43L294.67,155.16L296.56,158.87L298.44,160.82L300.33,156.15L302.22,161.55L304.11,164.13L307.89,152.53L309.78,155.87L313.56,149.49L315.44,140.13L317.33,134.5L319.22,137.97L321.11,139.23L323,147.2L324.89,146.55L326.78,149.69L328.67,152.22L330.56,157.79L332.44,163.95L334.33,174.67L338.11,177.34L340,182.81L341.89,183.96L343.78,190.18L345.67,193.57L347.56,189.8L349.44,193.33L351.33,202.85L355.11,221.35L357,223.2L358.89,224.44L360.78,216.42L362.67,211.46L364.56,209.7L366.44,215.35L368.33,215.21L370.22,212.79L372.11,216.36L377.78,225.24L379.67,221.65L381.56,220.88L383.44,212.79L385.33,201.03L387.22,203.8L389.11,204.59L391,200.7L392.89,198.04L394.78,191.97L396.67,190.32L398.56,192.39L400.44,193.71L402.33,187.14L408,165.3L409.89,159.75L413.67,163.23L415.56,161.82L417.44,161.75L419.33,166.03L421.22,167.97L423.11,163.91L425,160.14L426.89,152.85L428.78,144.82L430.67,142.6L434.44,153.73L436.33,153.22L440.11,149.26L442,149.13L443.89,150L445.78,156.47L451.44,140.39L453.33,137.66L455.22,132.19L457.11,138.74L459,137.52L460.89,137.31L462.78,137.91L464.67,135.07L466.56,131.1L468.44,134.29L470.33,134.4L472.22,135.32L474.11,130.32L476,118.15L477.89,118.42L479.78,119.6L481.67,119.68L483.56,122.25L485.44,109.89L487.33,112.3L489.22,113.07L491.11,109.57L493,102.03L494.89,107.3L496.78,113.44L498.67,109.13L500.56,112.88L502.44,127.18L504.33,125.11L506.22,133.41L511.89,170.41L513.78,175.03L515.67,176.58L517.56,176.74L519.44,178.56L521.33,182.28L523.22,184L525.11,177.93L527,176.65L528.89,172.64L530.78,173.78L532.67,172.99L534.56,170.57L536.44,165.31L540.22,146.89L542.11,146.87L545.89,163.22L547.78,163.38L549.67,161.29L551.56,150.91L553.44,152.49L555.33,137.85L557.22,129.57L559.11,128.52L561,140.05L562.89,130.96L564.78,116.42L566.67,117.81L568.56,110.06L570.44,116.96L574.22,104.92L576.11,106.02L578,103.37L579.89,112.29L581.78,110.77L583.67,115.34L585.56,117.49L587.44,123.59L589.33,120.59L591.22,121.51L593.11,123.43L595,118.39L596.89,105.62L598.78,103.08L602.56,90.8L604.44,78.91L606.33,75.52L608.22,69.86L610.11,60.17L612,66.42L613.89,67.62L615.78,61.48L617.67,61.33L619.56,68.84L621.44,71.05L623.33,62.09L625.22,60.26L627.11,70.67L630.89,77.34L632.78,82.73L634.67,96.59L636.56,98.16L640.33,92.4L642.22,92.18L646,105.56L647.89,104.13L649.78,105.88L651.67,114.16L655.44,114.83L657.33,122.63L659.22,131.06L661.11,128.2L663,135.71L664.89,139.97L666.78,145.69L668.67,148.53L670.56,142.46L672.44,145.86L674.33,143.2L676.22,152.5L680,133L681.89,135.71L685.67,136.83L687.56,126.04L689.44,117.64L691.33,115.92L693.22,118.47L695.11,124.76L697,126.51L698.89,124.59L700.78,118.26L702.67,119.39L706.44,118.04L708.33,110.67L712.11,127.82L714,124.36L715.89,121.35L717.78,134.35L719.67,129.52L721.56,130.38L723.44,130.57L725.33,127.5L727.22,127.21L729.11,118.14L731,115.96L732.89,115.74L734.78,115.14L736.67,116.85L738.56,102.59L740.44,108.51L742.33,103.48L744.22,110.46L746.11,114.09L748,114.51L749.89,101.44L751.78,102.29L753.67,99.6L755.56,99.14L757.44,93.58L759.33,92.95L761.22,97.06L763.11,95.22L765,94.93L766.89,90.64L768.78,90.28L770.67,85.65L772.56,87.28L774.44,100.57L776.33,91.32L778.22,95.79L780.11,92.16L782,104.02L785.78,116.02L787.67,113.93L789.56,105.59L791.44,105.39L793.33,108.62L795.22,115.07L797.11,113.95L799,116.5L800.89,110.64L802.78,118.67L804.67,117.73L806.56,120.05L808.44,115.91L810.33,123.54L812.22,119.27L814.11,119.04L816,116.02L817.89,114.98L819.78,107.63L821.67,106.22L823.56,105.51L825.44,106.44L827.33,110.98L829.22,106.85L833,109.8L834.89,97.42L836.78,107.94L838.67,110.07L840.56,108.94L842.44,104.35L846.22,104.28L848.11,106.39L850,107.92L850,202.8L848.11,199.99L846.22,199.84L842.44,203.04L840.56,204.98L836.78,211.68L834.89,209.46L833,214.19L831.11,222.38L829.22,224.44L827.33,225.07L825.44,226.23L823.56,231.48L819.78,231.15L817.89,225.37L816,231.5L814.11,231.35L812.22,232.42L810.33,240.47L808.44,240.99L806.56,244.96L804.67,252.73L802.78,250.36L800.89,251.55L799,245.02L797.11,248.14L795.22,243.28L793.33,242.66L791.44,237.91L789.56,246.5L787.67,250.92L785.78,250.62L783.89,255.01L782,251.89L780.11,254.21L778.22,260.62L776.33,262.7L774.44,263.99L772.56,262.16L770.67,258.38L768.78,264.61L765,253.63L763.11,254.3L761.22,253.77L759.33,258.93L757.44,245.47L755.56,240.72L753.67,243.87L751.78,251.2L748,254.59L746.11,260.39L744.22,259.5L742.33,260.68L740.44,261.32L738.56,260.81L736.67,256.21L734.78,256.69L732.89,255.75L731,255.8L729.11,253.77L727.22,259.03L721.56,261.72L719.67,269.28L717.78,267.12L715.89,259.58L714,262.3L712.11,263.26L710.22,260.24L708.33,264.06L704.56,263.02L702.67,260.15L700.78,260.71L698.89,260.42L695.11,258.2L693.22,252.37L691.33,252.31L689.44,245.08L687.56,250.06L685.67,250.04L683.78,244.45L681.89,242.97L680,248.69L678.11,249.24L676.22,254.56L674.33,253.04L672.44,247.87L670.56,250.05L668.67,255.4L666.78,250.7L664.89,249.14L663,258.63L661.11,262.48L659.22,256.53L655.44,252.44L653.56,254.88L651.67,249.74L649.78,247.45L647.89,241.8L646,244.34L644.11,243.3L642.22,248.86L640.33,247.02L638.44,247.73L636.56,242.19L634.67,240.71L632.78,239.95L630.89,234.99L629,235.01L627.11,233.54L625.22,228.83L623.33,227.96L621.44,236.3L619.56,238.85L617.67,241.79L615.78,236.03L613.89,241.72L612,255.7L606.33,267.68L604.44,267.67L602.56,269.28L600.67,274.5L598.78,277.01L596.89,284.7L595,287.68L593.11,285.85L589.33,275.5L587.44,267.73L583.67,278.86L581.78,290.98L579.89,286.53L578,291.91L574.22,284.38L572.33,276.65L570.44,292.81L568.56,294.57L566.67,305.5L564.78,311.92L562.89,298.68L561,294.87L559.11,282.94L557.22,285.11L555.33,284.45L553.44,286.8L551.56,287.52L549.67,304.16L547.78,300.23L545.89,301.96L544,303.44L542.11,308.94L540.22,314.07L538.33,302.12L536.44,305.22L534.56,291.51L532.67,291.78L530.78,293.43L525.11,274.84L523.22,273.03L521.33,263.14L519.44,262.57L517.56,259.4L515.67,259.06L513.78,259.55L511.89,263.26L510,258.68L508.11,265.13L506.22,263.07L504.33,265.37L502.44,265.68L500.56,269.02L498.67,266.12L496.78,266.68L494.89,269.86L493,266.8L491.11,271.42L489.22,262.64L487.33,266.28L485.44,271.61L483.56,270.38L481.67,265.54L479.78,263.21L477.89,262.98L476,264L474.11,259.87L472.22,257.97L470.33,260.83L468.44,263.94L466.56,261.38L462.78,257.64L460.89,253.17L455.22,260.5L453.33,264.8L451.44,265.15L449.56,269.03L447.67,275.03L445.78,275.03L443.89,277.36L442,270.09L440.11,274.86L438.22,269.79L436.33,270.8L434.44,273.95L430.67,262.97L428.78,263.98L426.89,260.96L425,255.86L423.11,265.01L421.22,268.02L419.33,269.1L417.44,265.31L413.67,275.99L411.78,270.31L408,252.15L406.11,250.77L404.22,253.89L402.33,258.73L400.44,256.83L398.56,261.35L396.67,257.82L394.78,258.29L392.89,257.48L391,257.62L389.11,260.88L387.22,270.16L385.33,272.47L383.44,272.03L377.78,289.04L375.89,283.91L374,283.26L372.11,285.03L370.22,289.11L368.33,287.55L364.56,293.02L362.67,294.16L360.78,298.55L358.89,294.18L357,293.03L355.11,294.46L353.22,288.92L351.33,289.61L349.44,288.35L347.56,296.07L345.67,309.06L343.78,308.91L341.89,312.15L340,300.67L338.11,302.63L336.22,308.22L334.33,310.02L332.44,310.24L330.56,316.31L328.67,315.58L324.89,327.32L323,330.5L321.11,344.48L319.22,344.97L317.33,346.37L315.44,339.71L313.56,342.47L311.67,343.65L309.78,349.62L307.89,350.05L306,349.06L304.11,350.41L302.22,359.44L300.33,360.19L298.44,354.67L296.56,355.22L294.67,355.13L292.78,348.61L290.89,345.39L289,345.07L285.22,340.39L283.33,337.92L281.44,347.1L279.56,347.99L275.78,345.96L273.89,356.77L270.11,352.02L268.22,355.37L266.33,353.32L264.44,357.44L262.56,354.98L260.67,356.54L258.78,361.39L256.89,362.8L255,369.83L253.11,373.16L251.22,361.68L249.33,366.45L247.44,365.39L245.56,372.22L243.67,371.19L241.78,371.35L239.89,366.6L238,370.24L234.22,375.04L232.33,374.52L228.56,377.3L226.67,371.88L224.78,377.26L222.89,371.16L221,376.45L219.11,375.04L217.22,375.43L215.33,370.19L213.44,364.53L211.56,362.38L209.67,354.38L207.78,351.53L205.89,353.68L204,361.25L198.33,362.75L196.44,365.62L194.56,363.16L192.67,357.87L188.89,361.81L187,353.99L185.11,353.25L183.22,366.23L177.56,404.37L175.67,404.57L173.78,407.83L171.89,412.59L170,407.77L168.11,407.75L166.22,409.94L164.33,409.78L162.44,416.83L160.56,427.74L156.78,409.44L154.89,409.72L153,410.57L151.11,404.79L149.22,400.37L147.33,402.47L145.44,399.95L143.56,399.11L139.78,387.12L137.89,386.57L134.11,390.67L132.22,383.86L130.33,393.95L128.44,396.03L126.56,402.04L124.67,414.94L122.78,412.43L120.89,412.22L119,413.73L117.11,407.32L115.22,401.15L113.33,398.46L111.44,395.31L109.56,397.68L107.67,395.66L105.78,400.27L103.89,404.76L102,397.66L96.33,389.87L94.44,384.53L92.56,380.65L90.67,373.71L86.89,376.98L85,381.64L83.11,385.13L81.22,392.57L79.33,394.68L77.44,404.36L75.56,400.7L73.67,400.54L71.78,401.89L69.89,407.07L64.22,401.76L62.33,401.02L60.44,407.64L58.56,409.49L56.67,409.55L54.78,417.85L52.89,415.62L51,418.34L49.11,414.59L47.22,418.23L45.33,421.15L43.44,428.32L41.56,428.28L39.67,433.3L37.78,438.63L35.89,441.28L34,439.25L32.11,443.99L30.22,441.78L28.33,448.2L24.56,455.21L22.67,452.91L20.78,448.52L18.89,450.89L17,457.88L15.11,461.44L13.22,462.84L11.33,463.14L9.44,470.29L7.56,469.11L5.67,473.7L3.78,484.61L1.89,486.95L0,469.12" style="vector-effect: non-scaling-stroke; fill: none; stroke: rgb(255, 255, 255); stroke-opacity: 0; stroke-width: 3px; opacity: 1;"/></g><g class="points"/><g class="text"/></g><g class="trace scatter trace42a302" style="stroke-miterlimit: 2; opacity: 1;"><g class="fills"/><g class="errorbars"/><g class="lines"><path class="js-line" d="M0,444.68L1.89,447.9L3.78,447.22L5.67,441.24L7.56,438.17L11.33,431.96L13.22,433.22L17,425.78L18.89,421.43L20.78,417.18L22.67,421.17L26.44,414.35L28.33,412.9L30.22,409.5L32.11,408.41L34,406.49L35.89,399.86L37.78,398.24L39.67,395.43L41.56,389.97L43.44,390.44L47.22,381.34L49.11,382.17L51,379.77L52.89,379.76L54.78,378.8L56.67,374.81L58.56,370.86L60.44,369.29L64.22,363.62L66.11,362.09L68,359.61L69.89,361.74L71.78,358.62L73.67,357.11L75.56,357.43L77.44,359.38L79.33,355.57L81.22,355.03L83.11,354.65L85,351.25L86.89,349.43L88.78,349.3L90.67,349.72L92.56,352.13L94.44,352.1L96.33,350.8L100.11,350.6L102,348.38L103.89,348.93L105.78,345.65L107.67,342.73L109.56,341.63L113.33,346.5L115.22,347.98L119,342.65L120.89,342.84L122.78,342.71L124.67,341.01L126.56,335.47L128.44,334.13L130.33,335.31L132.22,334.24L134.11,336.03L136,336.36L137.89,332.98L139.78,331.55L141.67,334.24L143.56,333.77L147.33,334.17L149.22,333.58L151.11,334.34L153,336.45L154.89,333.42L156.78,337.86L158.67,339.86L160.56,339.47L166.22,332.46L168.11,331.31L170,326.85L171.89,327.17L175.67,324.88L177.56,318.68L179.44,314.53L181.33,314.86L185.11,308.93L187,307.11L190.78,303.75L192.67,300.39L194.56,296.91L196.44,296.36L198.33,296.4L200.22,293.56L202.11,290.14L204,293.57L205.89,288.97L207.78,288.85L209.67,287.07L211.56,282.93L213.44,284.39L215.33,284.4L217.22,285.41L219.11,284.25L221,285.72L222.89,281.56L224.78,280.3L226.67,276.87L228.56,275.55L230.44,276.17L232.33,276L234.22,277.52L239.89,271.12L241.78,267.96L245.56,266.25L247.44,260.63L249.33,263.64L251.22,260.84L253.11,261.39L255,259.35L260.67,246.21L262.56,246.55L264.44,245.92L266.33,243.03L268.22,246.86L270.11,245.82L272,246.17L273.89,248.72L275.78,245.7L277.67,247.37L279.56,245.79L281.44,247.4L283.33,244.2L285.22,245.37L287.11,244.07L289,246.62L290.89,247.49L292.78,244.78L294.67,249.82L296.56,251.82L298.44,250.07L300.33,250.17L302.22,249.44L304.11,247.25L306,247.88L307.89,245.33L309.78,246.76L311.67,243.84L313.56,247.6L315.44,244.63L317.33,245.97L319.22,245.89L321.11,246.8L323,243.54L326.78,239.47L328.67,240.2L330.56,239.05L332.44,239.89L334.33,241.16L336.22,240.93L338.11,236.8L340,234.99L341.89,241.08L343.78,241.24L345.67,242.05L347.56,238.02L349.44,235.52L351.33,237.04L355.11,245.52L357,243.82L358.89,246.28L360.78,245.33L362.67,242L364.56,242.36L366.44,244.6L368.33,244.77L370.22,243.18L372.11,243.36L375.89,243.44L377.78,244.27L379.67,242.9L381.56,243.57L383.44,238.18L385.33,236.32L387.22,238.63L389.11,235.31L392.89,228.25L394.78,228.7L396.67,226.78L398.56,227.43L400.44,225.99L402.33,225.71L404.22,223.15L406.11,222.14L408,218.54L409.89,220.16L411.78,221.26L413.67,219.23L417.44,216.57L419.33,218.78L421.22,221.1L423.11,217.55L425,212.97L426.89,211.12L428.78,208.28L430.67,210.74L434.44,217.73L436.33,215.53L438.22,212.75L440.11,212.47L442,211.33L443.89,214.24L445.78,213.44L447.67,214.54L455.22,204.04L457.11,206.75L460.89,201.37L462.78,201.53L464.67,203.11L466.56,199.78L468.44,200.48L470.33,198.1L472.22,198.67L474.11,198.27L476,198.83L477.89,203.25L479.78,204.35L481.67,202.61L487.33,198.7L489.22,200.05L491.11,199.86L493,196.54L496.78,200.54L498.67,200.16L500.56,201.72L502.44,205.16L508.11,208.48L510,211.73L511.89,215.77L513.78,216.92L515.67,217.85L517.56,217.69L519.44,222.5L521.33,223.46L523.22,225.98L525.11,224.75L530.78,226.75L532.67,224L536.44,223.86L538.33,221.56L540.22,223.61L542.11,221.06L547.78,223.67L549.67,223.75L551.56,217.24L553.44,219.27L557.22,214.41L559.11,213.83L561,218.62L562.89,217.21L564.78,212.87L566.67,211.34L568.56,206.46L570.44,205.55L572.33,200.7L574.22,198.42L578,202.82L579.89,202.34L581.78,204.91L583.67,204.07L585.56,204.05L587.44,206.12L589.33,205.66L591.22,206.45L593.11,206.19L595,204.97L596.89,200.26L598.78,197.92L600.67,196.14L602.56,198.43L604.44,194.93L606.33,197.05L608.22,192.59L610.11,190.83L612,192.86L613.89,190.14L615.78,189.58L617.67,192.1L621.44,191.94L623.33,186.06L625.22,184.95L627.11,192.8L634.67,199.14L636.56,199.41L640.33,197.42L642.22,199.45L644.11,200.3L646,204.54L647.89,204.19L649.78,204.78L651.67,207.75L653.56,206.8L657.33,203.44L659.22,207.84L661.11,209.38L663,212.95L664.89,209.66L666.78,214.72L668.67,213.1L670.56,209.28L672.44,207.67L674.33,210.7L676.22,212.46L678.11,209.13L680,205.94L681.89,205.79L685.67,203.86L687.56,204.44L689.44,201.15L691.33,203.5L695.11,202.59L697,200.92L698.89,201.07L700.78,197.99L702.67,202.03L704.56,201.6L710.22,199.33L712.11,201.1L714,201.98L715.89,197.79L719.67,199.16L721.56,196.56L725.33,190.46L727.22,189.55L729.11,185.17L731,188.52L734.78,194.05L736.67,194.38L742.33,191.97L744.22,192.48L746.11,190.18L748,190.37L749.89,187.93L751.78,189.29L753.67,186.1L755.56,184.69L757.44,182.25L759.33,185.67L761.22,185.27L763.11,187.94L765,188.42L766.89,191.66L768.78,191.82L770.67,190.05L772.56,189.18L774.44,190.94L776.33,188.7L778.22,188.9L780.11,184.88L782,185.52L783.89,187.74L785.78,188.29L787.67,186.21L789.56,189.12L791.44,188.05L793.33,190.37L795.22,190.42L797.11,187.12L799,185.9L800.89,187.18L804.67,185.97L806.56,183.7L808.44,179.61L810.33,181.88L812.22,178.63L814.11,177.6L816,176.17L817.89,179.39L819.78,181.38L821.67,179.64L823.56,181.57L825.44,175.88L827.33,174.74L829.22,174.71L831.11,171.65L833,171.22L834.89,170.26L836.78,170.67L838.67,174.86L840.56,175.94L844.33,172.1L846.22,172.67L848.11,169.92L850,171.69" style="vector-effect: non-scaling-stroke; fill: none; stroke: rgb(0, 100, 80); stroke-opacity: 1; stroke-width: 3px; opacity: 1;"/></g><g class="points"/><g class="text"/></g><g class="trace scatter tracec48099" style="stroke-miterlimit: 2; opacity: 1;"><g class="fills"><g><path class="js-fill" d="M0,412.26L3.78,392.23L5.67,388.6L9.44,379.72L11.33,373.46L13.22,360.88L15.11,340.52L18.89,317.03L20.78,313.81L22.67,315.28L24.56,309.18L26.44,324.15L28.33,319.1L30.22,318.04L32.11,318.11L34,330.99L35.89,332.72L39.67,323.05L41.56,329.21L45.33,343.73L47.22,333.17L49.11,332.8L51,329.29L52.89,326.37L54.78,320.02L56.67,319.13L58.56,309.79L60.44,314.97L62.33,322.53L64.22,319.1L66.11,313.42L68,315.59L69.89,311.87L71.78,312.5L73.67,302.89L75.56,301.19L77.44,291.57L79.33,286.82L81.22,290.57L85,275.62L86.89,273.04L88.78,268.59L90.67,267.22L92.56,264.46L94.44,259.04L98.22,271.51L100.11,271.03L102,267.08L103.89,272.07L105.78,269.89L107.67,272.74L111.44,281.84L113.33,283.91L115.22,282.82L117.11,279.07L119,278.58L120.89,284.42L122.78,282.1L124.67,283.53L126.56,281.09L128.44,274.15L130.33,276.94L132.22,272.87L134.11,270.66L136,266.21L137.89,266.02L139.78,261.84L141.67,266.34L143.56,261.58L145.44,257.09L147.33,259L149.22,263.63L151.11,255.64L153,250.86L154.89,248.42L156.78,253.15L158.67,251.09L160.56,249.58L162.44,261.8L164.33,263.35L166.22,261.8L168.11,258.74L170,263.56L173.78,264.37L175.67,263.65L177.56,265.85L179.44,262.64L181.33,268.39L183.22,265.28L185.11,264.48L187,258.84L190.78,244.53L192.67,243.87L194.56,238.34L196.44,236.22L198.33,231.76L200.22,234.77L202.11,235.26L204,234.15L207.78,227.88L209.67,222.94L211.56,226.35L213.44,226.31L215.33,225.48L217.22,219.9L219.11,220.35L221,219.64L222.89,225.41L224.78,223.19L228.56,223.9L230.44,227.17L232.33,235.05L234.22,232.6L236.11,231.73L238,229.49L239.89,241.15L241.78,232.65L243.67,224.07L245.56,223.73L253.11,223.49L255,227.32L258.78,227.7L260.67,225.99L262.56,228.17L264.44,224.13L266.33,225.09L268.22,229.24L270.11,228.7L272,220.25L273.89,225.36L275.78,220.66L279.56,217.86L281.44,223.22L287.11,224.51L289,225.5L290.89,223.64L292.78,219.95L294.67,219.92L296.56,218.48L300.33,220.42L302.22,217.84L304.11,221.32L306,219.9L307.89,214.78L309.78,212.21L311.67,217.29L313.56,215.24L315.44,219.59L317.33,220.3L319.22,214.33L321.11,220.24L324.89,223.05L326.78,214.49L328.67,208.6L330.56,198.98L332.44,198.98L334.33,197.14L336.22,203.62L338.11,202.29L340,202.54L341.89,201.26L343.78,188.93L345.67,191.32L347.56,179.17L349.44,176.17L351.33,162.83L353.22,161.87L355.11,160.67L357,153.47L358.89,157.14L360.78,151.56L362.67,138.95L364.56,138.64L366.44,147.79L368.33,144.19L370.22,145.12L372.11,144.12L374,150.95L375.89,153.53L377.78,154.76L379.67,160.24L381.56,155.38L383.44,147.94L385.33,151.84L387.22,144.33L391,130.1L392.89,137.77L394.78,133.62L396.67,126.29L400.44,126.5L402.33,118.03L404.22,117.66L406.11,119.2L409.89,105.76L411.78,103.95L413.67,109.59L415.56,96.02L417.44,89.17L419.33,89.6L421.22,88.32L423.11,93.81L425,101.81L426.89,96.35L432.56,116.86L434.44,109.25L438.22,121.25L440.11,121.94L442,132.63L443.89,128.51L445.78,136.23L447.67,135.82L449.56,135.27L451.44,127.7L455.22,128.92L457.11,127.66L464.67,94.9L466.56,100L470.33,87.59L472.22,98L474.11,91.78L476,91.51L477.89,106.81L479.78,108.44L481.67,109.59L483.56,111.8L485.44,118.72L487.33,112.86L489.22,114.3L491.11,113.3L493,107.63L494.89,105.72L496.78,118.79L498.67,119.12L500.56,103.01L502.44,110.08L504.33,101.57L506.22,109.71L508.11,106.53L510,109.13L511.89,109.58L513.78,104.2L515.67,104.52L517.56,93.48L519.44,87.59L521.33,86.32L523.22,89.22L525.11,84.83L527,82.36L528.89,90.79L532.67,71.61L534.56,68.9L538.33,47.79L540.22,47.16L544,32.03L545.89,32.26L547.78,26L549.67,30.87L551.56,46.33L553.44,45.53L555.33,45.74L557.22,43.77L559.11,52.97L561,46.31L562.89,37.4L564.78,45.45L566.67,35.79L568.56,38.42L570.44,43.66L572.33,38.32L574.22,32.73L576.11,32.18L578,53L579.89,52.72L581.78,55.81L583.67,65.19L585.56,75.98L587.44,77.59L589.33,70.36L591.22,70.79L593.11,74.35L595,88.93L596.89,89.11L598.78,101.14L600.67,95.69L602.56,94.35L604.44,107.42L606.33,111.85L610.11,124.12L612,134.04L613.89,147.05L615.78,139.41L617.67,136.59L619.56,141.81L621.44,139.12L623.33,141.08L627.11,164.39L629,169.73L630.89,167.11L632.78,166.73L634.67,160.93L636.56,165.93L638.44,163.91L640.33,166.51L642.22,161.57L644.11,162.63L647.89,168.92L649.78,167.26L651.67,168.46L653.56,168.02L655.44,174.22L657.33,169.03L659.22,169.38L661.11,171L663,169.77L664.89,170.29L668.67,185L670.56,180.51L672.44,174.09L674.33,179.52L676.22,179.25L678.11,175.26L681.89,170.23L683.78,173.91L685.67,172.65L687.56,161.04L689.44,159.88L691.33,163.96L693.22,155.24L695.11,154.32L697,155.54L698.89,150.75L700.78,137.12L702.67,135.24L704.56,129.43L706.44,128.99L708.33,126.84L710.22,135.34L714,107.21L715.89,105.96L717.78,95.36L719.67,89.73L721.56,84.58L723.44,73.14L725.33,81.4L727.22,82.93L729.11,84.25L731,77.68L732.89,84.57L734.78,78.4L738.56,71L740.44,77.39L742.33,79.19L744.22,78.79L746.11,79.45L748,82.52L749.89,80.36L751.78,89.11L753.67,98.14L755.56,93.1L757.44,81.2L759.33,88.72L761.22,88.59L763.11,81.15L765,91.89L766.89,87.36L768.78,79.6L770.67,83.72L772.56,73.39L774.44,68.84L776.33,69.87L778.22,65.84L780.11,69.5L782,77.57L783.89,77.69L785.78,74.33L789.56,84.49L791.44,75.23L793.33,71.75L795.22,87.07L797.11,82.19L799,86.7L800.89,82.88L802.78,77.15L804.67,81.8L806.56,95.9L808.44,107.86L810.33,106.43L812.22,106.4L814.11,108.09L816,109.59L817.89,103.21L821.67,84.72L823.56,89.46L825.44,95.31L827.33,95.17L829.22,98.49L831.11,91.67L833,95.86L834.89,76.47L836.78,88.4L838.67,75.9L840.56,91.87L842.44,80.56L846.22,66.47L848.11,70.21L850,76.93L850,285.39L848.11,286.94L846.22,284.56L844.33,288.79L842.44,285.8L840.56,293.72L838.67,295.94L836.78,292.33L834.89,285.44L831.11,295.44L829.22,297.27L827.33,297.3L825.44,293.43L823.56,288.81L821.67,287.68L817.89,272.8L816,273.33L814.11,274.25L812.22,273.9L810.33,276.33L808.44,274.02L806.56,274.86L804.67,270.63L800.89,266.43L799,261.09L797.11,259.35L795.22,263.46L793.33,271.04L791.44,267.76L787.67,278.71L785.78,274.36L783.89,269.19L782,274.73L778.22,277.3L776.33,275.23L774.44,274.43L772.56,272L770.67,268.16L768.78,270L763.11,254.35L761.22,253.12L759.33,252.44L757.44,250.7L755.56,244.47L753.67,247.85L748,241.38L746.11,241.51L744.22,246.18L742.33,248.06L740.44,255.95L738.56,251.93L736.67,241.61L734.78,242.26L732.89,253.16L731,254.22L729.11,257.59L727.22,257.58L725.33,259.6L723.44,259.35L721.56,261.69L719.67,259.02L717.78,262.57L715.89,270.46L714,269.47L712.11,275.2L710.22,280.71L708.33,283.04L704.56,272.46L702.67,271.57L700.78,265.53L698.89,255.06L697,253.52L695.11,248.94L693.22,251.34L691.33,257.95L689.44,256.34L687.56,251.71L685.67,251.95L683.78,257.23L681.89,254.95L680,257.35L676.22,251.88L674.33,244.67L672.44,244.57L670.56,250.6L668.67,252.37L666.78,256.25L664.89,253.23L663,253.47L661.11,258.58L659.22,253.11L657.33,249.9L655.44,253.03L651.67,261.19L649.78,260.56L647.89,258.87L646,263.7L642.22,273.23L640.33,271.5L638.44,259.45L636.56,255.3L634.67,256.82L632.78,254.77L630.89,268.1L629,269.86L627.11,267.95L625.22,273.66L623.33,276.22L621.44,273.99L619.56,281.9L617.67,277.28L615.78,271.18L613.89,270.58L612,278.12L610.11,277.04L608.22,273.28L606.33,272.8L604.44,270.7L602.56,274.35L600.67,278.51L598.78,273.63L596.89,273.4L595,276.64L593.11,272.52L591.22,274.69L589.33,281.85L587.44,282.07L585.56,295.77L583.67,301.04L581.78,300.06L579.89,305.24L576.11,303.42L574.22,309.21L572.33,304.33L570.44,309.24L568.56,314.54L566.67,312.41L564.78,311.55L562.89,307.47L561,300.03L559.11,300.42L557.22,301.3L555.33,300.92L553.44,303.62L551.56,299.06L549.67,299.4L547.78,307.41L545.89,310.74L544,310.98L542.11,309.67L540.22,310.8L538.33,313.61L536.44,306.07L534.56,310.77L532.67,303.64L530.78,301.5L528.89,294.99L527,291.11L525.11,283.35L523.22,296.15L521.33,297.68L519.44,298.39L517.56,309.91L515.67,312.92L513.78,317.9L511.89,319.78L510,323.79L508.11,324.23L506.22,322.56L504.33,332.96L502.44,323.87L500.56,326.42L498.67,320.31L496.78,314.46L494.89,316.87L493,317.45L491.11,318.83L489.22,318.36L487.33,309.34L485.44,315.97L483.56,312.75L481.67,316L479.78,312.84L476,303.48L474.11,310.53L472.22,304.7L470.33,307.54L468.44,305.94L466.56,305.6L464.67,304.82L462.78,298.37L460.89,296.26L459,295.64L457.11,295.6L455.22,300.52L453.33,294.32L451.44,291.82L449.56,291.73L447.67,293.75L445.78,302.89L443.89,303.99L442,305.86L440.11,304.43L438.22,302.69L436.33,302.22L434.44,304.83L432.56,303.73L430.67,308.2L428.78,293.39L426.89,292.58L425,293.38L421.22,276.51L419.33,271.08L417.44,261.88L415.56,267.28L413.67,260.17L411.78,269.29L409.89,262.77L408,267.44L406.11,266.56L404.22,263.72L400.44,268.67L398.56,268.88L392.89,284.05L391,283.87L389.11,290.73L387.22,291.88L383.44,293.59L381.56,293.35L379.67,295.01L377.78,291.72L375.89,290.49L374,294.66L372.11,293.74L370.22,301.35L368.33,303.16L366.44,310.9L364.56,313.94L362.67,318.71L360.78,324.56L358.89,323.41L355.11,324.19L353.22,327.62L351.33,334.09L349.44,336.8L347.56,332.97L345.67,339.33L343.78,337.93L341.89,341.76L340,339.5L338.11,344.33L336.22,342.86L334.33,322.28L332.44,315.84L330.56,320.43L328.67,317.16L326.78,323.96L324.89,328.31L323,329.12L321.11,327.95L319.22,331.04L315.44,336.36L313.56,340.84L311.67,344.39L309.78,344.58L307.89,345.43L306,347.18L304.11,341.47L302.22,338.51L300.33,338.59L298.44,341.4L296.56,342.51L294.67,334.38L292.78,340.67L290.89,341.2L289,340.63L287.11,349.97L285.22,355.98L283.33,353.46L281.44,352.12L279.56,346.15L277.67,347.1L275.78,345.71L273.89,344.38L272,347.84L270.11,345.54L268.22,344.75L266.33,340.14L264.44,342.37L262.56,338.23L260.67,341.98L256.89,332.25L255,345.45L253.11,354.53L251.22,352.59L249.33,359.04L247.44,360.43L245.56,365.51L243.67,367.26L238,391.79L236.11,393.32L234.22,398.53L232.33,398.81L230.44,398.4L228.56,394.84L226.67,403.71L224.78,402.72L222.89,404.89L221,400.46L219.11,400.53L217.22,402.92L215.33,398.27L213.44,399.76L211.56,401.28L209.67,410.18L207.78,413.51L205.89,419.04L204,409.33L202.11,405.32L200.22,407.27L198.33,406.64L196.44,402.2L194.56,401.02L192.67,395.36L190.78,395.55L188.89,393.7L187,398.07L185.11,406.6L183.22,410.17L181.33,412.75L179.44,407.43L177.56,416.09L175.67,419.46L171.89,425.22L170,421.83L168.11,425.48L166.22,421.99L162.44,436.62L160.56,428.45L158.67,424.49L156.78,425.45L154.89,428.13L153,428.86L151.11,430.15L149.22,427.01L147.33,427.22L145.44,432.66L143.56,431.21L141.67,432.91L139.78,430.08L137.89,425.56L136,428.02L134.11,431.88L132.22,426.55L130.33,429.82L128.44,429.63L126.56,436.56L124.67,437.88L122.78,434.45L120.89,439.42L119,437.36L117.11,435.74L115.22,436.22L113.33,437.74L111.44,432.05L109.56,437.44L107.67,438.54L105.78,447.96L103.89,447L100.11,455.78L98.22,453.37L96.33,448.16L94.44,450.92L92.56,452.29L90.67,456.05L88.78,453.07L86.89,446.84L85,457.92L83.11,449.38L77.44,442.56L75.56,444.96L73.67,445.61L71.78,445.05L69.89,442.03L68,444.53L66.11,440.17L64.22,443.45L62.33,441.8L60.44,438.59L58.56,438.1L56.67,432.65L52.89,436.32L51,432.76L49.11,438.62L47.22,440.54L45.33,446.23L43.44,456.72L41.56,457.11L39.67,467.11L35.89,476.09L34,470.31L32.11,466.18L30.22,468.84L26.44,457.06L24.56,455.75L22.67,454.64L20.78,456.94L18.89,460.87L17,468.12L15.11,471.35L13.22,476.14L11.33,478.06L9.44,491.88L3.78,494L1.89,493.11L0,487.85Z" style="fill: rgb(244, 196, 48); fill-opacity: 0.2; stroke-width: 0;"/></g></g><g class="errorbars"/><g class="lines"><path class="js-line" d="M0,412.26L3.78,392.23L5.67,388.6L9.44,379.72L11.33,373.46L13.22,360.88L15.11,340.52L18.89,317.03L20.78,313.81L22.67,315.28L24.56,309.18L26.44,324.15L28.33,319.1L30.22,318.04L32.11,318.11L34,330.99L35.89,332.72L39.67,323.05L41.56,329.21L45.33,343.73L47.22,333.17L49.11,332.8L51,329.29L52.89,326.37L54.78,320.02L56.67,319.13L58.56,309.79L60.44,314.97L62.33,322.53L64.22,319.1L66.11,313.42L68,315.59L69.89,311.87L71.78,312.5L73.67,302.89L75.56,301.19L77.44,291.57L79.33,286.82L81.22,290.57L85,275.62L86.89,273.04L88.78,268.59L90.67,267.22L92.56,264.46L94.44,259.04L98.22,271.51L100.11,271.03L102,267.08L103.89,272.07L105.78,269.89L107.67,272.74L111.44,281.84L113.33,283.91L115.22,282.82L117.11,279.07L119,278.58L120.89,284.42L122.78,282.1L124.67,283.53L126.56,281.09L128.44,274.15L130.33,276.94L132.22,272.87L134.11,270.66L136,266.21L137.89,266.02L139.78,261.84L141.67,266.34L143.56,261.58L145.44,257.09L147.33,259L149.22,263.63L151.11,255.64L153,250.86L154.89,248.42L156.78,253.15L158.67,251.09L160.56,249.58L162.44,261.8L164.33,263.35L166.22,261.8L168.11,258.74L170,263.56L173.78,264.37L175.67,263.65L177.56,265.85L179.44,262.64L181.33,268.39L183.22,265.28L185.11,264.48L187,258.84L190.78,244.53L192.67,243.87L194.56,238.34L196.44,236.22L198.33,231.76L200.22,234.77L202.11,235.26L204,234.15L207.78,227.88L209.67,222.94L211.56,226.35L213.44,226.31L215.33,225.48L217.22,219.9L219.11,220.35L221,219.64L222.89,225.41L224.78,223.19L228.56,223.9L230.44,227.17L232.33,235.05L234.22,232.6L236.11,231.73L238,229.49L239.89,241.15L241.78,232.65L243.67,224.07L245.56,223.73L253.11,223.49L255,227.32L258.78,227.7L260.67,225.99L262.56,228.17L264.44,224.13L266.33,225.09L268.22,229.24L270.11,228.7L272,220.25L273.89,225.36L275.78,220.66L279.56,217.86L281.44,223.22L287.11,224.51L289,225.5L290.89,223.64L292.78,219.95L294.67,219.92L296.56,218.48L300.33,220.42L302.22,217.84L304.11,221.32L306,219.9L307.89,214.78L309.78,212.21L311.67,217.29L313.56,215.24L315.44,219.59L317.33,220.3L319.22,214.33L321.11,220.24L324.89,223.05L326.78,214.49L328.67,208.6L330.56,198.98L332.44,198.98L334.33,197.14L336.22,203.62L338.11,202.29L340,202.54L341.89,201.26L343.78,188.93L345.67,191.32L347.56,179.17L349.44,176.17L351.33,162.83L353.22,161.87L355.11,160.67L357,153.47L358.89,157.14L360.78,151.56L362.67,138.95L364.56,138.64L366.44,147.79L368.33,144.19L370.22,145.12L372.11,144.12L374,150.95L375.89,153.53L377.78,154.76L379.67,160.24L381.56,155.38L383.44,147.94L385.33,151.84L387.22,144.33L391,130.1L392.89,137.77L394.78,133.62L396.67,126.29L400.44,126.5L402.33,118.03L404.22,117.66L406.11,119.2L409.89,105.76L411.78,103.95L413.67,109.59L415.56,96.02L417.44,89.17L419.33,89.6L421.22,88.32L423.11,93.81L425,101.81L426.89,96.35L432.56,116.86L434.44,109.25L438.22,121.25L440.11,121.94L442,132.63L443.89,128.51L445.78,136.23L447.67,135.82L449.56,135.27L451.44,127.7L455.22,128.92L457.11,127.66L464.67,94.9L466.56,100L470.33,87.59L472.22,98L474.11,91.78L476,91.51L477.89,106.81L479.78,108.44L481.67,109.59L483.56,111.8L485.44,118.72L487.33,112.86L489.22,114.3L491.11,113.3L493,107.63L494.89,105.72L496.78,118.79L498.67,119.12L500.56,103.01L502.44,110.08L504.33,101.57L506.22,109.71L508.11,106.53L510,109.13L511.89,109.58L513.78,104.2L515.67,104.52L517.56,93.48L519.44,87.59L521.33,86.32L523.22,89.22L525.11,84.83L527,82.36L528.89,90.79L532.67,71.61L534.56,68.9L538.33,47.79L540.22,47.16L544,32.03L545.89,32.26L547.78,26L549.67,30.87L551.56,46.33L553.44,45.53L555.33,45.74L557.22,43.77L559.11,52.97L561,46.31L562.89,37.4L564.78,45.45L566.67,35.79L568.56,38.42L570.44,43.66L572.33,38.32L574.22,32.73L576.11,32.18L578,53L579.89,52.72L581.78,55.81L583.67,65.19L585.56,75.98L587.44,77.59L589.33,70.36L591.22,70.79L593.11,74.35L595,88.93L596.89,89.11L598.78,101.14L600.67,95.69L602.56,94.35L604.44,107.42L606.33,111.85L610.11,124.12L612,134.04L613.89,147.05L615.78,139.41L617.67,136.59L619.56,141.81L621.44,139.12L623.33,141.08L627.11,164.39L629,169.73L630.89,167.11L632.78,166.73L634.67,160.93L636.56,165.93L638.44,163.91L640.33,166.51L642.22,161.57L644.11,162.63L647.89,168.92L649.78,167.26L651.67,168.46L653.56,168.02L655.44,174.22L657.33,169.03L659.22,169.38L661.11,171L663,169.77L664.89,170.29L668.67,185L670.56,180.51L672.44,174.09L674.33,179.52L676.22,179.25L678.11,175.26L681.89,170.23L683.78,173.91L685.67,172.65L687.56,161.04L689.44,159.88L691.33,163.96L693.22,155.24L695.11,154.32L697,155.54L698.89,150.75L700.78,137.12L702.67,135.24L704.56,129.43L706.44,128.99L708.33,126.84L710.22,135.34L714,107.21L715.89,105.96L717.78,95.36L719.67,89.73L721.56,84.58L723.44,73.14L725.33,81.4L727.22,82.93L729.11,84.25L731,77.68L732.89,84.57L734.78,78.4L738.56,71L740.44,77.39L742.33,79.19L744.22,78.79L746.11,79.45L748,82.52L749.89,80.36L751.78,89.11L753.67,98.14L755.56,93.1L757.44,81.2L759.33,88.72L761.22,88.59L763.11,81.15L765,91.89L766.89,87.36L768.78,79.6L770.67,83.72L772.56,73.39L774.44,68.84L776.33,69.87L778.22,65.84L780.11,69.5L782,77.57L783.89,77.69L785.78,74.33L789.56,84.49L791.44,75.23L793.33,71.75L795.22,87.07L797.11,82.19L799,86.7L800.89,82.88L802.78,77.15L804.67,81.8L806.56,95.9L808.44,107.86L810.33,106.43L812.22,106.4L814.11,108.09L816,109.59L817.89,103.21L821.67,84.72L823.56,89.46L825.44,95.31L827.33,95.17L829.22,98.49L831.11,91.67L833,95.86L834.89,76.47L836.78,88.4L838.67,75.9L840.56,91.87L842.44,80.56L846.22,66.47L848.11,70.21L850,76.93L850,285.39L848.11,286.94L846.22,284.56L844.33,288.79L842.44,285.8L840.56,293.72L838.67,295.94L836.78,292.33L834.89,285.44L831.11,295.44L829.22,297.27L827.33,297.3L825.44,293.43L823.56,288.81L821.67,287.68L817.89,272.8L816,273.33L814.11,274.25L812.22,273.9L810.33,276.33L808.44,274.02L806.56,274.86L804.67,270.63L800.89,266.43L799,261.09L797.11,259.35L795.22,263.46L793.33,271.04L791.44,267.76L787.67,278.71L785.78,274.36L783.89,269.19L782,274.73L778.22,277.3L776.33,275.23L774.44,274.43L772.56,272L770.67,268.16L768.78,270L763.11,254.35L761.22,253.12L759.33,252.44L757.44,250.7L755.56,244.47L753.67,247.85L748,241.38L746.11,241.51L744.22,246.18L742.33,248.06L740.44,255.95L738.56,251.93L736.67,241.61L734.78,242.26L732.89,253.16L731,254.22L729.11,257.59L727.22,257.58L725.33,259.6L723.44,259.35L721.56,261.69L719.67,259.02L717.78,262.57L715.89,270.46L714,269.47L712.11,275.2L710.22,280.71L708.33,283.04L704.56,272.46L702.67,271.57L700.78,265.53L698.89,255.06L697,253.52L695.11,248.94L693.22,251.34L691.33,257.95L689.44,256.34L687.56,251.71L685.67,251.95L683.78,257.23L681.89,254.95L680,257.35L676.22,251.88L674.33,244.67L672.44,244.57L670.56,250.6L668.67,252.37L666.78,256.25L664.89,253.23L663,253.47L661.11,258.58L659.22,253.11L657.33,249.9L655.44,253.03L651.67,261.19L649.78,260.56L647.89,258.87L646,263.7L642.22,273.23L640.33,271.5L638.44,259.45L636.56,255.3L634.67,256.82L632.78,254.77L630.89,268.1L629,269.86L627.11,267.95L625.22,273.66L623.33,276.22L621.44,273.99L619.56,281.9L617.67,277.28L615.78,271.18L613.89,270.58L612,278.12L610.11,277.04L608.22,273.28L606.33,272.8L604.44,270.7L602.56,274.35L600.67,278.51L598.78,273.63L596.89,273.4L595,276.64L593.11,272.52L591.22,274.69L589.33,281.85L587.44,282.07L585.56,295.77L583.67,301.04L581.78,300.06L579.89,305.24L576.11,303.42L574.22,309.21L572.33,304.33L570.44,309.24L568.56,314.54L566.67,312.41L564.78,311.55L562.89,307.47L561,300.03L559.11,300.42L557.22,301.3L555.33,300.92L553.44,303.62L551.56,299.06L549.67,299.4L547.78,307.41L545.89,310.74L544,310.98L542.11,309.67L540.22,310.8L538.33,313.61L536.44,306.07L534.56,310.77L532.67,303.64L530.78,301.5L528.89,294.99L527,291.11L525.11,283.35L523.22,296.15L521.33,297.68L519.44,298.39L517.56,309.91L515.67,312.92L513.78,317.9L511.89,319.78L510,323.79L508.11,324.23L506.22,322.56L504.33,332.96L502.44,323.87L500.56,326.42L498.67,320.31L496.78,314.46L494.89,316.87L493,317.45L491.11,318.83L489.22,318.36L487.33,309.34L485.44,315.97L483.56,312.75L481.67,316L479.78,312.84L476,303.48L474.11,310.53L472.22,304.7L470.33,307.54L468.44,305.94L466.56,305.6L464.67,304.82L462.78,298.37L460.89,296.26L459,295.64L457.11,295.6L455.22,300.52L453.33,294.32L451.44,291.82L449.56,291.73L447.67,293.75L445.78,302.89L443.89,303.99L442,305.86L440.11,304.43L438.22,302.69L436.33,302.22L434.44,304.83L432.56,303.73L430.67,308.2L428.78,293.39L426.89,292.58L425,293.38L421.22,276.51L419.33,271.08L417.44,261.88L415.56,267.28L413.67,260.17L411.78,269.29L409.89,262.77L408,267.44L406.11,266.56L404.22,263.72L400.44,268.67L398.56,268.88L392.89,284.05L391,283.87L389.11,290.73L387.22,291.88L383.44,293.59L381.56,293.35L379.67,295.01L377.78,291.72L375.89,290.49L374,294.66L372.11,293.74L370.22,301.35L368.33,303.16L366.44,310.9L364.56,313.94L362.67,318.71L360.78,324.56L358.89,323.41L355.11,324.19L353.22,327.62L351.33,334.09L349.44,336.8L347.56,332.97L345.67,339.33L343.78,337.93L341.89,341.76L340,339.5L338.11,344.33L336.22,342.86L334.33,322.28L332.44,315.84L330.56,320.43L328.67,317.16L326.78,323.96L324.89,328.31L323,329.12L321.11,327.95L319.22,331.04L315.44,336.36L313.56,340.84L311.67,344.39L309.78,344.58L307.89,345.43L306,347.18L304.11,341.47L302.22,338.51L300.33,338.59L298.44,341.4L296.56,342.51L294.67,334.38L292.78,340.67L290.89,341.2L289,340.63L287.11,349.97L285.22,355.98L283.33,353.46L281.44,352.12L279.56,346.15L277.67,347.1L275.78,345.71L273.89,344.38L272,347.84L270.11,345.54L268.22,344.75L266.33,340.14L264.44,342.37L262.56,338.23L260.67,341.98L256.89,332.25L255,345.45L253.11,354.53L251.22,352.59L249.33,359.04L247.44,360.43L245.56,365.51L243.67,367.26L238,391.79L236.11,393.32L234.22,398.53L232.33,398.81L230.44,398.4L228.56,394.84L226.67,403.71L224.78,402.72L222.89,404.89L221,400.46L219.11,400.53L217.22,402.92L215.33,398.27L213.44,399.76L211.56,401.28L209.67,410.18L207.78,413.51L205.89,419.04L204,409.33L202.11,405.32L200.22,407.27L198.33,406.64L196.44,402.2L194.56,401.02L192.67,395.36L190.78,395.55L188.89,393.7L187,398.07L185.11,406.6L183.22,410.17L181.33,412.75L179.44,407.43L177.56,416.09L175.67,419.46L171.89,425.22L170,421.83L168.11,425.48L166.22,421.99L162.44,436.62L160.56,428.45L158.67,424.49L156.78,425.45L154.89,428.13L153,428.86L151.11,430.15L149.22,427.01L147.33,427.22L145.44,432.66L143.56,431.21L141.67,432.91L139.78,430.08L137.89,425.56L136,428.02L134.11,431.88L132.22,426.55L130.33,429.82L128.44,429.63L126.56,436.56L124.67,437.88L122.78,434.45L120.89,439.42L119,437.36L117.11,435.74L115.22,436.22L113.33,437.74L111.44,432.05L109.56,437.44L107.67,438.54L105.78,447.96L103.89,447L100.11,455.78L98.22,453.37L96.33,448.16L94.44,450.92L92.56,452.29L90.67,456.05L88.78,453.07L86.89,446.84L85,457.92L83.11,449.38L77.44,442.56L75.56,444.96L73.67,445.61L71.78,445.05L69.89,442.03L68,444.53L66.11,440.17L64.22,443.45L62.33,441.8L60.44,438.59L58.56,438.1L56.67,432.65L52.89,436.32L51,432.76L49.11,438.62L47.22,440.54L45.33,446.23L43.44,456.72L41.56,457.11L39.67,467.11L35.89,476.09L34,470.31L32.11,466.18L30.22,468.84L26.44,457.06L24.56,455.75L22.67,454.64L20.78,456.94L18.89,460.87L17,468.12L15.11,471.35L13.22,476.14L11.33,478.06L9.44,491.88L3.78,494L1.89,493.11L0,487.85" style="vector-effect: non-scaling-stroke; fill: none; stroke: rgb(255, 255, 255); stroke-opacity: 0; stroke-width: 3px; opacity: 1;"/></g><g class="points"/><g class="text"/></g><g class="trace scatter trace85dee8" style="stroke-miterlimit: 2; opacity: 1;"><g class="fills"/><g class="errorbars"/><g class="lines"><path class="js-line" d="M0,440.48L1.89,438.89L3.78,433.28L5.67,426.24L7.56,422.81L9.44,420.71L11.33,413.11L15.11,402.4L17,396.55L20.78,389.1L22.67,386.23L24.56,386.01L26.44,389.15L28.33,388.33L30.22,384.87L32.11,381.99L34,381.57L35.89,380.43L37.78,374.81L41.56,369.47L43.44,369.71L45.33,370.03L47.22,365.62L49.11,364.12L51,361.63L52.89,361.66L54.78,358.95L58.56,353.31L60.44,356.31L64.22,359.66L66.11,355.57L68,355.07L69.89,352.04L71.78,351.31L73.67,348.84L75.56,346.21L77.44,341.24L81.22,335.96L83.11,331.79L85,330.85L86.89,326.08L88.78,327.66L90.67,325.3L92.56,324.33L94.44,324.95L96.33,325.54L98.22,328.63L100.11,329.84L102,327.76L105.78,330.24L107.67,327.23L109.56,328.27L111.44,330.23L113.33,333.95L115.22,334.07L119,333.57L120.89,333.18L124.67,334.68L126.56,333.99L128.44,328.45L130.33,328.28L132.22,324.73L134.11,325L139.78,318.49L141.67,322.03L143.56,320.87L145.44,321.43L147.33,321.63L149.22,323.49L153,327.79L154.89,328.13L156.78,327.87L158.67,324.84L160.56,325.32L162.44,331.01L166.22,327.63L168.11,328.86L170,330.91L171.89,330.63L173.78,334.33L175.67,332.8L177.56,332.82L179.44,330.89L181.33,332.86L183.22,328.96L185.11,332.8L187,329.99L190.78,323.02L192.67,324.76L196.44,326.45L198.33,324.57L200.22,324.25L202.11,325.1L204,326.23L205.89,326.33L207.78,321.42L209.67,321.37L211.56,321.38L213.44,319.78L217.22,311.98L219.11,311.2L221,311.24L222.89,313.31L224.78,312.48L226.67,312.94L228.56,309.09L230.44,311.15L232.33,313.5L234.22,311.89L236.11,306.93L238,308.11L239.89,307.55L241.78,300.95L243.67,296.64L245.56,295.5L247.44,294.24L249.33,291.17L251.22,289.14L253.11,288.97L255,288.28L256.89,283.12L258.78,283.99L260.67,282.34L262.56,281.88L264.44,279.18L266.33,279.3L268.22,277.01L270.11,279.34L272,277.38L275.78,276L277.67,276.17L279.56,273.1L281.44,274.52L285.22,275.65L287.11,272.04L289,267.42L290.89,266.51L294.67,264.54L296.56,265.8L298.44,264.02L300.33,265.2L304.11,264.07L306,261.62L307.89,261.2L309.78,258.66L311.67,259.83L313.56,258.25L315.44,257.6L317.33,255.41L319.22,253.8L321.11,253.41L323,255.95L324.89,255.36L328.67,247.51L330.56,247.16L332.44,247.13L334.33,246.03L336.22,251.89L338.11,252.12L340,250.75L341.89,250.6L343.78,247.48L345.67,247.55L347.56,244.23L349.44,244.71L351.33,242.34L353.22,241.95L355.11,242.15L357,241.17L358.89,242.45L360.78,241.34L364.56,237.83L366.44,239.64L368.33,238.2L370.22,238.57L372.11,238.15L374,238.55L375.89,237.15L377.78,238.15L381.56,238.2L383.44,239.5L385.33,238.14L387.22,234.35L389.11,232.73L391,227.74L392.89,226.83L394.78,223.05L396.67,219.87L398.56,218.36L402.33,216.34L404.22,214.37L406.11,214.21L408,211.4L409.89,209.01L411.78,210.48L415.56,207.53L417.44,206.16L419.33,206.15L421.22,207.21L425,212.95L426.89,212.51L432.56,221.45L434.44,218.85L436.33,218.6L438.22,219.98L440.11,219.98L442,223.47L443.89,220.79L445.78,223.33L447.67,221.56L449.56,221.31L453.33,217.57L455.22,218.8L457.11,215.92L459,215.8L462.78,213.73L464.67,213.99L466.56,214.28L468.44,213.63L470.33,212.7L472.22,210.38L476,207.19L477.89,210.69L479.78,212.82L481.67,217.34L483.56,216.18L485.44,220.46L487.33,218.12L489.22,218.06L491.11,220.3L493,224.91L494.89,225.03L496.78,227.9L498.67,229.87L500.56,227.97L502.44,231.24L504.33,232.08L506.22,230.72L508.11,232.78L510,232.15L511.89,230.67L513.78,229.34L515.67,229.91L519.44,224.4L521.33,223.38L523.22,221.24L525.11,213.01L528.89,218.91L530.78,220.13L534.56,217.57L536.44,213.02L538.33,215.13L540.22,216.09L544,213.69L545.89,210.84L547.78,210.87L549.67,209.59L551.56,213.13L553.44,212.24L559.11,213.83L561,212.37L562.89,211.6L564.78,213.09L570.44,215.01L572.33,210.36L574.22,209.04L576.11,206.2L578,214.08L579.89,212.73L583.67,216.48L585.56,216.5L587.44,210.61L589.33,210.39L591.22,208.46L593.11,207.83L595,211.07L596.89,209.14L598.78,209.98L600.67,208.95L602.56,207.6L604.44,209L606.33,209.67L608.22,211.5L612,214.73L613.89,213.88L615.78,210.88L617.67,211.01L619.56,216.81L621.44,211.79L627.11,211.88L629,213.71L630.89,213.68L632.78,214.54L634.67,214.05L636.56,216.16L638.44,218.45L640.33,224.99L642.22,225.16L644.11,226.47L647.89,223.13L649.78,225.32L651.67,225.76L653.56,223.6L655.44,223.88L657.33,223.09L659.22,219.86L661.11,222.9L663,222.61L664.89,221.55L666.78,221.23L668.67,220L670.56,218.49L672.44,209.39L674.33,210.44L676.22,209.67L683.78,211.27L685.67,208.69L687.56,206.55L689.44,205.9L691.33,207.18L693.22,205.18L697,209.12L698.89,209.53L700.78,208.06L702.67,207.66L704.56,206.21L706.44,207.45L708.33,210.03L710.22,210.86L714,200.98L715.89,200.22L719.67,195.66L721.56,195.41L723.44,192.79L725.33,194.17L727.22,194.38L729.11,195.79L731,194.24L732.89,196.65L734.78,192.4L736.67,193.15L738.56,192.94L740.44,196.68L742.33,196.48L744.22,194.6L746.11,191.28L748,193.2L749.89,193.33L751.78,197.05L753.67,199.24L755.56,196.83L761.22,200.54L763.11,198.36L766.89,201.55L768.78,200.99L770.67,200.8L772.56,197.93L776.33,196.66L778.22,198.21L780.11,198.01L782,199.17L783.89,198.6L785.78,195.99L787.67,198.78L789.56,195.4L791.44,192.6L793.33,193.36L795.22,193.71L797.11,191L799,193.79L800.89,192.14L802.78,190.42L804.67,193.92L808.44,203.91L810.33,203.21L812.22,201.87L814.11,204.02L816,205.01L817.89,204.38L819.78,204.63L821.67,202.02L823.56,203.92L825.44,204.56L827.33,202.98L829.22,204.9L831.11,200.76L833,201.18L834.89,194.99L836.78,199.54L838.67,197.26L840.56,201.06L842.44,195.93L844.33,194.63L846.22,188.64L848.11,189.37L850,188.38" style="vector-effect: non-scaling-stroke; fill: none; stroke: rgb(244, 196, 48); stroke-opacity: 1; stroke-width: 3px; opacity: 1;"/></g><g class="points"/><g class="text"/></g></g></g><g class="overplot"/><path class="xlines-above crisp" d="M0,0" style="fill: none;"/><path class="ylines-above crisp" d="M0,0" style="fill: none;"/><g class="overlines-above"/><g class="xaxislayer-above"><g class="xtick"><text text-anchor="middle" x="0" y="639" transform="translate(80,0)" style="font-family: 'Open Sans', verdana, arial, sans-serif; font-size: 18px; fill: rgb(68, 68, 68); fill-opacity: 1; white-space: pre; opacity: 1;">50</text></g><g class="xtick"><text text-anchor="middle" x="0" y="639" style="font-family: 'Open Sans', verdana, arial, sans-serif; font-size: 18px; fill: rgb(68, 68, 68); fill-opacity: 1; white-space: pre; opacity: 1;" transform="translate(174.44,0)">100</text></g><g class="xtick"><text text-anchor="middle" x="0" y="639" style="font-family: 'Open Sans', verdana, arial, sans-serif; font-size: 18px; fill: rgb(68, 68, 68); fill-opacity: 1; white-space: pre; opacity: 1;" transform="translate(268.89,0)">150</text></g><g class="xtick"><text text-anchor="middle" x="0" y="639" style="font-family: 'Open Sans', verdana, arial, sans-serif; font-size: 18px; fill: rgb(68, 68, 68); fill-opacity: 1; white-space: pre; opacity: 1;" transform="translate(363.33,0)">200</text></g><g class="xtick"><text text-anchor="middle" x="0" y="639" style="font-family: 'Open Sans', verdana, arial, sans-serif; font-size: 18px; fill: rgb(68, 68, 68); fill-opacity: 1; white-space: pre; opacity: 1;" transform="translate(457.78,0)">250</text></g><g class="xtick"><text text-anchor="middle" x="0" y="639" style="font-family: 'Open Sans', verdana, arial, sans-serif; font-size: 18px; fill: rgb(68, 68, 68); fill-opacity: 1; white-space: pre; opacity: 1;" transform="translate(552.22,0)">300</text></g><g class="xtick"><text text-anchor="middle" x="0" y="639" style="font-family: 'Open Sans', verdana, arial, sans-serif; font-size: 18px; fill: rgb(68, 68, 68); fill-opacity: 1; white-space: pre; opacity: 1;" transform="translate(646.67,0)">350</text></g><g class="xtick"><text text-anchor="middle" x="0" y="639" style="font-family: 'Open Sans', verdana, arial, sans-serif; font-size: 18px; fill: rgb(68, 68, 68); fill-opacity: 1; white-space: pre; opacity: 1;" transform="translate(741.11,0)">400</text></g><g class="xtick"><text text-anchor="middle" x="0" y="639" style="font-family: 'Open Sans', verdana, arial, sans-serif; font-size: 18px; fill: rgb(68, 68, 68); fill-opacity: 1; white-space: pre; opacity: 1;" transform="translate(835.56,0)">450</text></g><g class="xtick"><text text-anchor="middle" x="0" y="639" style="font-family: 'Open Sans', verdana, arial, sans-serif; font-size: 18px; fill: rgb(68, 68, 68); fill-opacity: 1; white-space: pre; opacity: 1;" transform="translate(930,0)">500</text></g></g><g class="yaxislayer-above"><g class="ytick"><text text-anchor="end" x="79" y="6.3" transform="translate(0,611.01)" style="font-family: 'Open Sans', verdana, arial, sans-serif; font-size: 18px; fill: rgb(68, 68, 68); fill-opacity: 1; white-space: pre; opacity: 1;">300</text></g><g class="ytick"><text text-anchor="end" x="79" y="6.3" style="font-family: 'Open Sans', verdana, arial, sans-serif; font-size: 18px; fill: rgb(68, 68, 68); fill-opacity: 1; white-space: pre; opacity: 1;" transform="translate(0,537.51)">250</text></g><g class="ytick"><text text-anchor="end" x="79" y="6.3" style="font-family: 'Open Sans', verdana, arial, sans-serif; font-size: 18px; fill: rgb(68, 68, 68); fill-opacity: 1; white-space: pre; opacity: 1;" transform="translate(0,464.01)">200</text></g><g class="ytick"><text text-anchor="end" x="79" y="6.3" style="font-family: 'Open Sans', verdana, arial, sans-serif; font-size: 18px; fill: rgb(68, 68, 68); fill-opacity: 1; white-space: pre; opacity: 1;" transform="translate(0,390.51)">150</text></g><g class="ytick"><text text-anchor="end" x="79" y="6.3" style="font-family: 'Open Sans', verdana, arial, sans-serif; font-size: 18px; fill: rgb(68, 68, 68); fill-opacity: 1; white-space: pre; opacity: 1;" transform="translate(0,317.02)">100</text></g><g class="ytick"><text text-anchor="end" x="79" y="6.3" style="font-family: 'Open Sans', verdana, arial, sans-serif; font-size: 18px; fill: rgb(68, 68, 68); fill-opacity: 1; white-space: pre; opacity: 1;" transform="translate(0,243.52)">50</text></g><g class="ytick"><text text-anchor="end" x="79" y="6.3" style="font-family: 'Open Sans', verdana, arial, sans-serif; font-size: 18px; fill: rgb(68, 68, 68); fill-opacity: 1; white-space: pre; opacity: 1;" transform="translate(0,170.01999999999998)">0</text></g></g><g class="overaxes-above"/></g></g><g class="polarlayer"/><g class="smithlayer"/><g class="ternarylayer"/><g class="geolayer"/><g class="funnelarealayer"/><g class="pielayer"/><g class="iciclelayer"/><g class="treemaplayer"/><g class="sunburstlayer"/><g class="glimages"/><defs id="topdefs-4ca2e0"><g class="clips"/><clipPath id="legend4ca2e0"><rect width="241" height="63" x="0" y="0"/></clipPath></defs><g class="layer-above"><g class="imagelayer"/><g class="shapelayer"/></g><g class="infolayer"><g class="legend" pointer-events="all" transform="translate(947,100)"><rect class="bg" shape-rendering="crispEdges" style="stroke: rgb(68, 68, 68); stroke-opacity: 1; fill: rgb(255, 255, 255); fill-opacity: 1; stroke-width: 0px;" width="241" height="63" x="0" y="0"/><g class="scrollbox" transform="" clip-path="url(#legend4ca2e0)"><g class="groups"><g class="traces" transform="translate(0,18.200000000000003)" style="opacity: 1;"><text class="legendtext" text-anchor="start" x="40" y="7.0200000000000005" style="font-family: 'Open Sans', verdana, arial, sans-serif; font-size: 18px; fill: rgb(68, 68, 68); fill-opacity: 1; white-space: pre;">Lunar Lander - DQN</text><g class="layers" style="opacity: 1;"><g class="legendfill"/><g class="legendlines"><path class="js-line" d="M5,0h30" style="fill: none; stroke: rgb(0, 100, 80); stroke-opacity: 1; stroke-width: 3px;"/></g><g class="legendsymbols"><g class="legendpoints"/></g></g><rect class="legendtoggle" x="0" y="-13.200000000000001" width="235.671875" height="26.400000000000002" style="fill: rgb(0, 0, 0); fill-opacity: 0;"/></g><g class="traces" transform="translate(0,44.6)" style="opacity: 1;"><text class="legendtext" text-anchor="start" x="40" y="7.0200000000000005" style="font-family: 'Open Sans', verdana, arial, sans-serif; font-size: 18px; fill: rgb(68, 68, 68); fill-opacity: 1; white-space: pre;">Lunar Lander - DDQN</text><g class="layers" style="opacity: 1;"><g class="legendfill"/><g class="legendlines"><path class="js-line" d="M5,0h30" style="fill: none; stroke: rgb(244, 196, 48); stroke-opacity: 1; stroke-width: 3px;"/></g><g class="legendsymbols"><g class="legendpoints"/></g></g><rect class="legendtoggle" x="0" y="-13.200000000000001" width="235.671875" height="26.400000000000002" style="fill: rgb(0, 0, 0); fill-opacity: 0;"/></g></g></g><rect class="scrollbar" rx="20" ry="3" width="0" height="0" style="fill: rgb(128, 139, 164); fill-opacity: 1;" x="0" y="0"/></g><g class="g-gtitle"><text class="gtitle" x="600" y="50" text-anchor="middle" dy="0em" style="font-family: 'Open Sans', verdana, arial, sans-serif; font-size: 25px; fill: rgb(68, 68, 68); opacity: 1; font-weight: normal; white-space: pre;">DQN vs DDQN - Lunar Lander (50 episodes moving average)</text></g><g class="g-xtitle"><text class="xtitle" x="505" y="672.9" text-anchor="middle" style="font-family: 'Open Sans', verdana, arial, sans-serif; font-size: 22px; fill: rgb(68, 68, 68); opacity: 1; font-weight: normal; white-space: pre;">Episodes</text></g><g class="g-ytitle" transform="translate(21.962890625,0)"><text class="ytitle" transform="rotate(-90,0.037499999999994316,360)" x="0.037499999999994316" y="360" text-anchor="middle" style="font-family: 'Open Sans', verdana, arial, sans-serif; font-size: 22px; fill: rgb(68, 68, 68); opacity: 1; font-weight: normal; white-space: pre;">Rewards</text></g><g class="annotation" data-index="0" style="opacity: 1;"><g class="annotation-text-g" transform="rotate(0,1038,250.99999999999997)"><g class="cursor-pointer" transform="translate(934,204)"><rect class="bg" x="0.5" y="0.5" width="208" height="93" style="stroke-width: 1px; stroke: rgb(0, 0, 0); stroke-opacity: 0; fill: rgb(0, 0, 0); fill-opacity: 0;"/><text class="annotation-text" text-anchor="middle" x="104.609375" y="18" style="font-family: Arial; font-size: 18px; fill: rgb(68, 68, 68); fill-opacity: 1; white-space: pre;"><tspan class="line" dy="0em" x="104.609375" y="18"><tspan style="font-weight:bold">Hiperparmetros:</tspan> </tspan><tspan class="line" dy="1.3em" x="104.609375" y="18">= 0.75, = 1.0</tspan><tspan class="line" dy="2.6em" x="104.609375" y="18">_min= 0.01, _dec= 0.99</tspan><tspan class="line" dy="3.9000000000000004em" x="104.609375" y="18"> = 0.001, batch= 64</tspan></text></g></g></g></g></svg>